<?xml version="1.0" encoding="UTF-8" standalone="no"?>
<!-- Created with Inkscape (http://www.inkscape.org/) -->

<svg
   width="297mm"
   height="210mm"
   viewBox="0 0 1122.5197 793.70081"
   version="1.1"
   id="svg1"
   inkscape:version="1.3 (0e150ed6c4, 2023-07-21)"
   sodipodi:docname="Intro Inkscape.svg"
   xmlns:inkscape="http://www.inkscape.org/namespaces/inkscape"
   xmlns:sodipodi="http://sodipodi.sourceforge.net/DTD/sodipodi-0.dtd"
   xmlns:xlink="http://www.w3.org/1999/xlink"
   xmlns="http://www.w3.org/2000/svg"
   xmlns:svg="http://www.w3.org/2000/svg">
  <sodipodi:namedview
     id="namedview1"
     pagecolor="#505050"
     bordercolor="#ffffff"
     borderopacity="1"
     inkscape:showpageshadow="0"
     inkscape:pageopacity="0"
     inkscape:pagecheckerboard="1"
     inkscape:deskcolor="#505050"
     inkscape:document-units="mm"
     inkscape:zoom="0.70710678"
     inkscape:cx="1209.1526"
     inkscape:cy="440.52752"
     inkscape:window-width="1920"
     inkscape:window-height="1009"
     inkscape:window-x="-8"
     inkscape:window-y="-8"
     inkscape:window-maximized="1"
     inkscape:current-layer="layer1" />
  <defs
     id="defs1">
    <inkscape:path-effect
       effect="skeletal"
       id="path-effect73"
       is_visible="true"
       lpeversion="1"
       pattern="M 0,18.867925 C 0,8.4528305 8.4528305,0 18.867925,0 29.28302,0 37.735851,8.4528305 37.735851,18.867925 c 0,10.415095 -8.452831,18.867926 -18.867926,18.867926 C 8.4528305,37.735851 0,29.28302 0,18.867925 Z"
       copytype="single_stretched"
       prop_scale="0.11811763"
       scale_y_rel="false"
       spacing="0"
       normal_offset="0"
       tang_offset="0"
       prop_units="false"
       vertical_pattern="false"
       hide_knot="false"
       fuse_tolerance="0" />
    <linearGradient
       id="linearGradient18"
       inkscape:collect="always">
      <stop
         style="stop-color:#bbffbb;stop-opacity:1;"
         offset="0"
         id="stop18" />
      <stop
         style="stop-color:#b8ffb8;stop-opacity:0;"
         offset="1"
         id="stop19" />
    </linearGradient>
    <linearGradient
       id="linearGradient14"
       inkscape:collect="always">
      <stop
         style="stop-color:#e776de;stop-opacity:1;"
         offset="0"
         id="stop14" />
      <stop
         style="stop-color:#e776de;stop-opacity:0;"
         offset="1"
         id="stop15" />
    </linearGradient>
    <linearGradient
       id="swatch9"
       inkscape:swatch="solid">
      <stop
         style="stop-color:#4a93de;stop-opacity:1;"
         offset="0"
         id="stop9" />
    </linearGradient>
    <radialGradient
       inkscape:collect="always"
       xlink:href="#linearGradient14"
       id="radialGradient15"
       cx="624.64844"
       cy="339.05762"
       fx="624.64844"
       fy="339.05762"
       r="179.87891"
       gradientTransform="matrix(1,0,0,0.8982334,0,34.50474)"
       gradientUnits="userSpaceOnUse" />
    <radialGradient
       inkscape:collect="always"
       xlink:href="#linearGradient18"
       id="radialGradient19"
       cx="1342.0134"
       cy="292.87891"
       fx="1342.0134"
       fy="292.87891"
       r="176.06935"
       gradientTransform="matrix(1.3288938,-0.62606939,0.57058781,1.2111287,-625.38839,784.30649)"
       gradientUnits="userSpaceOnUse" />
    <filter
       style="color-interpolation-filters:sRGB;"
       inkscape:label="Blur"
       id="filter19"
       x="-80.57571"
       y="-37.342696"
       width="162.15142"
       height="75.685392">
      <feGaussianBlur
         stdDeviation="8.5981 5.53092"
         result="blur"
         id="feGaussianBlur19" />
    </filter>
  </defs>
  <g
     inkscape:label="Camada 1"
     inkscape:groupmode="layer"
     id="layer1">
    <circle
       style="fill:#c422b7;fill-opacity:1;stroke:none;stroke-width:4.3389;stroke-dasharray:17.3556, 4.3389;stroke-dashoffset:0"
       id="path9"
       cx="586.19153"
       cy="409.41479"
       r="231.93103" />
    <path
       d="m 769.81976,550.87712 c -2.49165,2.46504 -5.3719,4.59047 -7.97599,6.94906 -8.81802,7.23305 -18.1706,13.8606 -27.98633,19.83204 -9.81526,5.97124 -20.06856,11.27118 -30.68164,15.85937 -10.61322,4.58747 -21.55904,8.45147 -32.75391,11.5625 -11.19459,3.11193 -22.6097,5.46297 -34.1582,7.03516 -11.54883,1.57202 -23.20152,2.36114 -34.86914,2.36133 -11.66762,-1.9e-4 -23.32032,-0.78931 -34.86915,-2.36133 -11.5485,-1.57219 -22.96361,-3.92323 -34.1582,-7.03516 -11.19487,-3.11103 -22.14069,-6.97503 -32.75391,-11.5625 -10.61375,-4.58811 -20.8677,-9.88805 -30.68359,-15.85937 -9.81506,-5.97151 -19.16699,-12.59906 -27.98438,-19.83204 -8.8176,-7.23241 -17.0782,-15.05178 -24.71875,-23.39843 -7.64054,-8.34729 -14.64143,-17.20054 -20.94922,-26.49219 -6.30802,-9.29103 -11.9069,-18.99672 -16.7539,-29.04297 -4.84698,-10.04674 -8.92964,-20.4084 -12.2168,-31.00586 -3.28732,-10.59675 -5.77086,-21.40225 -7.43164,-32.33399 -1.66058,-10.93235 -2.49408,-21.96303 -2.49414,-33.00781 0.14874,-2.5732 0.34278,-5.14387 0.58203,-7.71094 -0.11576,0.52434 -0.22969,1.04909 -0.3418,1.57422 -1.57195,10.9317 -2.36106,21.96172 -2.36133,33.00586 1.7e-4,11.0448 0.78929,22.07547 2.36133,33.00782 1.57212,10.93241 3.92316,21.73855 7.03516,32.33593 3.11109,10.59674 6.97508,20.95774 11.5625,31.00391 4.58813,10.04692 9.88807,19.75326 15.85937,29.04492 5.97152,9.29102 12.59906,18.14362 19.83204,26.49024 7.23236,8.3473 15.05173,16.16733 23.39843,23.40039 8.34731,7.23238 17.20057,13.85927 26.49219,19.83008 9.29104,5.97122 18.99672,11.27116 29.04297,15.85937 10.04675,4.58817 20.4084,8.45283 31.00586,11.56446 10.5968,3.11125 21.40229,5.46163 32.33399,7.0332 10.93234,1.57204 21.96302,2.36116 33.00781,2.36133 11.04479,-1.7e-4 22.07547,-0.78929 33.00781,-2.36133 10.9317,-1.57157 21.73719,-3.92195 32.33399,-7.0332 10.59746,-3.11163 20.95911,-6.97629 31.00586,-11.56446 10.04625,-4.58821 19.75193,-9.88815 29.04297,-15.85937 9.29162,-5.97081 18.14488,-12.5977 26.49219,-19.83008 8.3467,-7.23306 16.16607,-15.05309 23.39843,-23.40039 2.77425,-3.49121 5.7787,-6.77444 8.34709,-10.41977 z"
       style="mix-blend-mode:multiply;fill:#c422b7;fill-opacity:1;stroke-width:4.3389;stroke-dasharray:17.3556, 4.3389"
       id="path11"
       sodipodi:nodetypes="ccsccccccccccccccccccsccccccccccccccccc" />
    <path
       d="m 804.52736,331.32813 a 231.93103,231.93103 0 0 0 -0.84179,-2.46484 231.93103,231.93103 0 0 0 -4.35938,-10.91211 231.93103,231.93103 0 0 0 -4.90625,-10.67774 231.93103,231.93103 0 0 0 -5.43945,-10.41601 231.93103,231.93103 0 0 0 -5.96289,-10.125 231.93103,231.93103 0 0 0 -6.46485,-9.8125 231.93103,231.93103 0 0 0 -6.95508,-9.4707 231.93103,231.93103 0 0 0 -7.42578,-9.10743 231.93103,231.93103 0 0 0 -7.8789,-8.7207 231.93103,231.93103 0 0 0 -8.3086,-8.30859 231.93103,231.93103 0 0 0 -8.71875,-7.87696 231.93103,231.93103 0 0 0 -9.10742,-7.42578 231.93103,231.93103 0 0 0 -9.47266,-6.95508 231.93103,231.93103 0 0 0 -9.81054,-6.46679 231.93103,231.93103 0 0 0 -10.12696,-5.96094 231.93103,231.93103 0 0 0 -10.41601,-5.44141 231.93103,231.93103 0 0 0 -10.67774,-4.90625 231.93103,231.93103 0 0 0 -10.91211,-4.35742 231.93103,231.93103 0 0 0 -11.11914,-3.80078 231.93103,231.93103 0 0 0 -11.29687,-3.23438 231.93103,231.93103 0 0 0 -11.44727,-2.65625 231.93103,231.93103 0 0 0 -11.56641,-2.07226 231.93103,231.93103 0 0 0 -11.65625,-1.48438 231.93103,231.93103 0 0 0 -11.71679,-0.89258 231.93103,231.93103 0 0 0 -11.74805,-0.29687 231.93103,231.93103 0 0 0 -33.00781,2.35937 231.93103,231.93103 0 0 0 -32.33399,7.03516 231.93103,231.93103 0 0 0 -26.69922,9.95899 180.31223,180.31223 0 0 0 -14.94336,17.49609 180.31223,180.31223 0 0 0 -14.7832,24.125 180.31223,180.31223 0 0 0 -10.82813,26.14063 180.31223,180.31223 0 0 0 -6.60547,27.51171 180.31223,180.31223 0 0 0 -2.2207,28.20704 180.31223,180.31223 0 0 0 2.2207,28.20898 180.31223,180.31223 0 0 0 6.60547,27.51172 180.31223,180.31223 0 0 0 10.82813,26.14063 180.31223,180.31223 0 0 0 14.7832,24.125 180.31223,180.31223 0 0 0 18.375,21.51367 180.31223,180.31223 0 0 0 21.51563,18.37695 180.31223,180.31223 0 0 0 24.125,14.78321 180.31223,180.31223 0 0 0 26.14062,10.82812 180.31223,180.31223 0 0 0 27.51172,6.60547 180.31223,180.31223 0 0 0 28.20704,2.21875 180.31223,180.31223 0 0 0 28.20703,-2.21875 180.31223,180.31223 0 0 0 27.51367,-6.60547 180.31223,180.31223 0 0 0 26.14063,-10.82812 180.31223,180.31223 0 0 0 24.12304,-14.78321 180.31223,180.31223 0 0 0 21.51563,-18.37695 180.31223,180.31223 0 0 0 18.37695,-21.51367 180.31223,180.31223 0 0 0 14.78321,-24.125 180.31223,180.31223 0 0 0 10.82812,-26.14063 180.31223,180.31223 0 0 0 6.60352,-27.51172 180.31223,180.31223 0 0 0 1.35351,-17.19922 z"
       style="mix-blend-mode:normal;fill:url(#radialGradient15);fill-opacity:1;stroke-width:4.3389;stroke-dasharray:17.3556, 4.3389"
       id="path13" />
    <circle
       style="opacity:0.369502;fill:#f4c2f0;fill-opacity:1;stroke:none;stroke-width:4.3389;stroke-dasharray:17.3556, 4.3389;stroke-dashoffset:0;stroke-opacity:1"
       id="path15"
       cx="627.91083"
       cy="294.1564"
       r="24.04163" />
    <circle
       style="opacity:1;fill:#00ff00;fill-opacity:1;stroke:none;stroke-width:4.3389;stroke-dasharray:17.3556, 4.3389;stroke-dashoffset:0;stroke-opacity:1"
       id="path16"
       cx="1378.1511"
       cy="377.595"
       r="209.3036" />
    <path
       d="m 1235.3242,530.01368 a 209.3036,209.3036 0 0 1 -2.0253,-2.02539 231.93102,220.26376 0 0 1 -0.8809,-0.45703 209.3036,209.3036 0 0 0 2.9062,2.48242 z"
       style="opacity:1;mix-blend-mode:multiply;fill:#d9bfd9;stroke-width:4.3389;stroke-dasharray:17.3556, 4.3389;filter:url(#filter19)"
       id="path65" />
    <path
       d="m 1249.0528,541.74025 a 209.3036,209.3036 0 0 1 -13.7286,-11.72657 209.3036,209.3036 0 0 0 5.7618,5.76172 209.3036,209.3036 0 0 0 7.9668,5.96485 z"
       style="opacity:1;mix-blend-mode:multiply;fill:#d9bfd9;stroke-width:4.3389;stroke-dasharray:17.3556, 4.3389;filter:url(#filter19)"
       id="path64" />
    <path
       d="m 1263.0957,552.25197 a 209.3036,209.3036 0 0 1 -14.0429,-10.51172 209.3036,209.3036 0 0 0 6.0722,5.18554 209.3036,209.3036 0 0 0 7.9707,5.32618 z"
       style="opacity:1;mix-blend-mode:multiply;fill:#d9bfd9;stroke-width:4.3389;stroke-dasharray:17.3556, 4.3389;filter:url(#filter19)"
       id="path63" />
    <path
       d="m 1266.2403,554.35353 a 209.3036,209.3036 0 0 1 -3.1446,-2.10156 209.3036,209.3036 0 0 0 1.8965,1.41992 209.3036,209.3036 0 0 0 1.2481,0.68164 z"
       style="opacity:1;mix-blend-mode:multiply;fill:#d9bfd9;stroke-width:4.3389;stroke-dasharray:17.3556, 4.3389;filter:url(#filter19)"
       id="path62" />
    <path
       d="m 1289.1309,566.85353 a 209.3036,209.3036 0 0 1 -22.8906,-12.5 209.3036,209.3036 0 0 0 2.5488,1.70312 209.3036,209.3036 0 0 0 14.3398,8.0293 209.3036,209.3036 0 0 0 6.002,2.76758 z"
       style="opacity:1;mix-blend-mode:multiply;fill:#d9bfd9;stroke-width:4.3389;stroke-dasharray:17.3556, 4.3389;filter:url(#filter19)"
       id="path61" />
    <path
       d="m 1293.2051,568.73048 a 209.3036,209.3036 0 0 1 -4.0742,-1.87695 209.3036,209.3036 0 0 0 2.0723,1.13086 209.3036,209.3036 0 0 0 2.0019,0.74609 z"
       style="opacity:1;mix-blend-mode:multiply;fill:#d9bfd9;stroke-width:4.3389;stroke-dasharray:17.3556, 4.3389;filter:url(#filter19)"
       id="path60" />
    <path
       d="m 1317.4805,577.78517 a 209.3036,209.3036 0 0 1 -24.2754,-9.05469 209.3036,209.3036 0 0 0 4.8496,2.23633 209.3036,209.3036 0 0 0 15.418,5.6875 209.3036,209.3036 0 0 0 4.0078,1.13086 z"
       style="opacity:1;mix-blend-mode:multiply;fill:#d9bfd9;stroke-width:4.3389;stroke-dasharray:17.3556, 4.3389;filter:url(#filter19)"
       id="path59" />
    <path
       d="m 1321.584,578.94142 a 209.3036,209.3036 0 0 1 -4.1035,-1.15625 209.3036,209.3036 0 0 0 1.7031,0.63477 209.3036,209.3036 0 0 0 2.4004,0.52148 z"
       style="opacity:1;mix-blend-mode:multiply;fill:#d9bfd9;stroke-width:4.3389;stroke-dasharray:17.3556, 4.3389;filter:url(#filter19)"
       id="path58" />
    <path
       d="m 1347.4004,584.55861 a 209.3036,209.3036 0 0 1 -25.8164,-5.61719 209.3036,209.3036 0 0 0 7.7051,2.17383 209.3036,209.3036 0 0 0 16.1191,3.20703 209.3036,209.3036 0 0 0 1.9922,0.23633 z"
       style="opacity:1;mix-blend-mode:multiply;fill:#d9bfd9;stroke-width:4.3389;stroke-dasharray:17.3556, 4.3389;filter:url(#filter19)"
       id="path57" />
    <path
       d="m 1350.4043,584.91408 a 209.3036,209.3036 0 0 1 -3.0039,-0.35547 209.3036,209.3036 0 0 0 0.9629,0.20898 209.3036,209.3036 0 0 0 2.041,0.14649 z"
       style="opacity:1;mix-blend-mode:multiply;fill:#d9bfd9;stroke-width:4.3389;stroke-dasharray:17.3556, 4.3389;filter:url(#filter19)"
       id="path56" />
    <path
       d="m 1378.1504,586.89845 a 209.3036,209.3036 0 0 1 -27.7461,-1.98437 209.3036,209.3036 0 0 0 11.3242,1.33984 209.3036,209.3036 0 0 0 16.4219,0.64453 z"
       style="opacity:1;mix-blend-mode:multiply;fill:#d9bfd9;stroke-width:4.3389;stroke-dasharray:17.3556, 4.3389;filter:url(#filter19)"
       id="path55" />
    <path
       d="m 1405.8965,584.91408 a 209.3036,209.3036 0 0 1 -27.7461,1.98437 209.3036,209.3036 0 0 0 16.4219,-0.64453 209.3036,209.3036 0 0 0 11.3242,-1.33984 z"
       style="opacity:1;mix-blend-mode:multiply;fill:#d9bfd9;stroke-width:4.3389;stroke-dasharray:17.3556, 4.3389;filter:url(#filter19)"
       id="path54" />
    <path
       d="m 1408.9004,584.55861 a 209.3036,209.3036 0 0 1 -3.0039,0.35547 209.3036,209.3036 0 0 0 2.041,-0.14649 209.3036,209.3036 0 0 0 0.9629,-0.20898 z"
       style="opacity:1;mix-blend-mode:multiply;fill:#d9bfd9;stroke-width:4.3389;stroke-dasharray:17.3556, 4.3389;filter:url(#filter19)"
       id="path53" />
    <path
       d="m 1434.7149,578.94337 a 209.3036,209.3036 0 0 1 -25.8145,5.61524 209.3036,209.3036 0 0 0 1.9922,-0.23633 209.3036,209.3036 0 0 0 16.1192,-3.20703 209.3036,209.3036 0 0 0 7.7031,-2.17188 z"
       style="opacity:1;mix-blend-mode:multiply;fill:#d9bfd9;stroke-width:4.3389;stroke-dasharray:17.3556, 4.3389;filter:url(#filter19)"
       id="path52" />
    <path
       d="m 1438.8243,577.78322 a 209.3036,209.3036 0 0 1 -4.1094,1.16015 209.3036,209.3036 0 0 0 2.4043,-0.52343 209.3036,209.3036 0 0 0 1.7051,-0.63672 z"
       style="opacity:1;mix-blend-mode:multiply;fill:#d9bfd9;stroke-width:4.3389;stroke-dasharray:17.3556, 4.3389;filter:url(#filter19)"
       id="path51" />
    <path
       d="m 1463.0977,568.73048 a 209.3036,209.3036 0 0 1 -24.2734,9.05274 209.3036,209.3036 0 0 0 4.0058,-1.12891 209.3036,209.3036 0 0 0 15.418,-5.6875 209.3036,209.3036 0 0 0 4.8496,-2.23633 z"
       style="opacity:1;mix-blend-mode:multiply;fill:#d9bfd9;stroke-width:4.3389;stroke-dasharray:17.3556, 4.3389;filter:url(#filter19)"
       id="path50" />
    <path
       d="m 1467.17,566.85353 a 209.3036,209.3036 0 0 1 -4.0723,1.87695 209.3036,209.3036 0 0 0 2.0019,-0.74609 209.3036,209.3036 0 0 0 2.0704,-1.13086 z"
       style="opacity:1;mix-blend-mode:multiply;fill:#d9bfd9;stroke-width:4.3389;stroke-dasharray:17.3556, 4.3389;filter:url(#filter19)"
       id="path49" />
    <path
       d="m 1490.0606,554.35353 a 209.3036,209.3036 0 0 1 -22.8906,12.5 209.3036,209.3036 0 0 0 6.0039,-2.76758 209.3036,209.3036 0 0 0 14.3379,-8.0293 209.3036,209.3036 0 0 0 2.5488,-1.70312 z"
       style="opacity:1;mix-blend-mode:multiply;fill:#d9bfd9;stroke-width:4.3389;stroke-dasharray:17.3556, 4.3389;filter:url(#filter19)"
       id="path48" />
    <path
       d="m 1493.2051,552.25197 a 209.3036,209.3036 0 0 1 -3.1445,2.10156 209.3036,209.3036 0 0 0 1.248,-0.68164 209.3036,209.3036 0 0 0 1.8965,-1.41992 z"
       style="opacity:1;mix-blend-mode:multiply;fill:#d9bfd9;stroke-width:4.3389;stroke-dasharray:17.3556, 4.3389;filter:url(#filter19)"
       id="path47" />
    <path
       d="m 1514.8125,536.07618 a 209.3036,209.3036 0 0 1 -21.6074,16.17579 209.3036,209.3036 0 0 0 7.9707,-5.32618 209.3036,209.3036 0 0 0 12.9063,-10.17382 209.3036,209.3036 0 0 0 0.7304,-0.67579 z"
       style="opacity:1;mix-blend-mode:multiply;fill:#d9bfd9;stroke-width:4.3389;stroke-dasharray:17.3556, 4.3389;filter:url(#filter19)"
       id="path46" />
    <path
       d="m 1516.1504,534.83986 a 209.3036,209.3036 0 0 1 -1.3379,1.23632 209.3036,209.3036 0 0 0 0.4024,-0.30078 209.3036,209.3036 0 0 0 0.9355,-0.93554 z"
       style="opacity:1;mix-blend-mode:multiply;fill:#d9bfd9;stroke-width:4.3389;stroke-dasharray:17.3556, 4.3389;filter:url(#filter19)"
       id="path45" />
    <path
       d="m 1535.3731,515.61915 a 209.3036,209.3036 0 0 1 -19.2227,19.22071 209.3036,209.3036 0 0 0 10,-9.24414 209.3036,209.3036 0 0 0 9.2227,-9.97657 z"
       style="opacity:1;mix-blend-mode:multiply;fill:#d9bfd9;stroke-width:4.3389;stroke-dasharray:17.3556, 4.3389;filter:url(#filter19)"
       id="path44" />
    <path
       d="m 1536.6407,514.24806 a 209.3036,209.3036 0 0 1 -1.2676,1.37109 209.3036,209.3036 0 0 0 0.959,-0.95898 209.3036,209.3036 0 0 0 0.3086,-0.41211 z"
       style="opacity:1;mix-blend-mode:multiply;fill:#d9bfd9;stroke-width:4.3389;stroke-dasharray:17.3556, 4.3389;filter:url(#filter19)"
       id="path43" />
    <path
       d="m 1552.7911,492.67579 a 209.3036,209.3036 0 0 1 -16.1504,21.57227 209.3036,209.3036 0 0 0 0.666,-0.7207 209.3036,209.3036 0 0 0 10.1738,-12.90625 209.3036,209.3036 0 0 0 5.3106,-7.94532 z"
       style="opacity:1;mix-blend-mode:multiply;fill:#d9bfd9;stroke-width:4.3389;stroke-dasharray:17.3556, 4.3389;filter:url(#filter19)"
       id="path42" />
    <path
       d="m 1554.918,489.49025 a 209.3036,209.3036 0 0 1 -2.1269,3.18554 209.3036,209.3036 0 0 0 1.4375,-1.92187 209.3036,209.3036 0 0 0 0.6894,-1.26367 z"
       style="opacity:1;mix-blend-mode:multiply;fill:#d9bfd9;stroke-width:4.3389;stroke-dasharray:17.3556, 4.3389;filter:url(#filter19)"
       id="path41" />
    <path
       d="m 1567.4102,466.61525 a 209.3036,209.3036 0 0 1 -12.4922,22.875 209.3036,209.3036 0 0 0 1.6934,-2.53321 209.3036,209.3036 0 0 0 8.0312,-14.33984 209.3036,209.3036 0 0 0 2.7676,-6.00195 z"
       style="opacity:1;mix-blend-mode:multiply;fill:#d9bfd9;stroke-width:4.3389;stroke-dasharray:17.3556, 4.3389;filter:url(#filter19)"
       id="path40" />
    <path
       d="m 1569.2871,462.54103 a 209.3036,209.3036 0 0 1 -1.8769,4.07422 209.3036,209.3036 0 0 0 1.1309,-2.07227 209.3036,209.3036 0 0 0 0.746,-2.00195 z"
       style="opacity:1;mix-blend-mode:multiply;fill:#d9bfd9;stroke-width:4.3389;stroke-dasharray:17.3556, 4.3389;filter:url(#filter19)"
       id="path39" />
    <path
       d="m 1578.3418,438.26564 a 209.3036,209.3036 0 0 1 -9.0547,24.27539 209.3036,209.3036 0 0 0 2.2364,-4.84961 209.3036,209.3036 0 0 0 5.6875,-15.41797 209.3036,209.3036 0 0 0 1.1308,-4.00781 z"
       style="opacity:1;mix-blend-mode:multiply;fill:#d9bfd9;stroke-width:4.3389;stroke-dasharray:17.3556, 4.3389;filter:url(#filter19)"
       id="path38" />
    <path
       d="m 1579.4981,434.16212 a 209.3036,209.3036 0 0 1 -1.1563,4.10352 209.3036,209.3036 0 0 0 0.6348,-1.70313 209.3036,209.3036 0 0 0 0.5215,-2.40039 z"
       style="opacity:1;mix-blend-mode:multiply;fill:#d9bfd9;stroke-width:4.3389;stroke-dasharray:17.3556, 4.3389;filter:url(#filter19)"
       id="path37" />
    <path
       d="m 1585.1094,408.36524 a 209.3036,209.3036 0 0 1 -5.6113,25.79688 209.3036,209.3036 0 0 0 2.1738,-7.70508 209.3036,209.3036 0 0 0 3.2051,-16.11914 209.3036,209.3036 0 0 0 0.2324,-1.97266 z"
       style="opacity:1;mix-blend-mode:multiply;fill:#d9bfd9;stroke-width:4.3389;stroke-dasharray:17.3556, 4.3389;filter:url(#filter19)"
       id="path36" />
    <path
       d="m 1585.4727,405.30079 a 209.3036,209.3036 0 0 1 -0.3633,3.06445 209.3036,209.3036 0 0 0 0.2149,-0.98242 209.3036,209.3036 0 0 0 0.1484,-2.08203 z"
       style="opacity:1;mix-blend-mode:multiply;fill:#d9bfd9;stroke-width:4.3389;stroke-dasharray:17.3556, 4.3389;filter:url(#filter19)"
       id="path35" />
    <path
       d="m 1587.4551,377.59571 a 209.3036,209.3036 0 0 1 -1.9824,27.70508 209.3036,209.3036 0 0 0 1.3359,-11.2832 209.3036,209.3036 0 0 0 0.6465,-16.42188 z"
       style="opacity:1;mix-blend-mode:multiply;fill:#d9bfd9;stroke-width:4.3389;stroke-dasharray:17.3556, 4.3389;filter:url(#filter19)"
       id="path34" />
    <path
       d="m 1587.1758,366.96095 a 209.3036,209.3036 0 0 1 0.2793,10.63476 209.3036,209.3036 0 0 0 -0.2519,-10.27148 209.3036,209.3036 0 0 0 -0.027,-0.36328 z"
       style="opacity:1;mix-blend-mode:multiply;fill:#d9bfd9;stroke-width:4.3389;stroke-dasharray:17.3556, 4.3389;filter:url(#filter19)"
       id="path33" />
    <path
       d="m 1586.9219,363.51173 a 209.3036,209.3036 0 0 1 0.2539,3.44922 209.3036,209.3036 0 0 0 -0.01,-0.32032 209.3036,209.3036 0 0 0 -0.2461,-3.1289 z"
       style="opacity:1;mix-blend-mode:multiply;fill:#d9bfd9;stroke-width:4.3389;stroke-dasharray:17.3556, 4.3389;filter:url(#filter19)"
       id="path32" />
    <path
       d="m 1586.3614,356.37696 a 209.3036,209.3036 0 0 1 0.5605,7.13477 209.3036,209.3036 0 0 0 -0.4746,-6.43164 209.3036,209.3036 0 0 0 -0.086,-0.70313 z"
       style="opacity:1;mix-blend-mode:multiply;fill:#d9bfd9;stroke-width:4.3389;stroke-dasharray:17.3556, 4.3389;filter:url(#filter19)"
       id="path31" />
    <path
       d="m 1585.8477,352.22266 a 209.3036,209.3036 0 0 1 0.5137,4.1543 209.3036,209.3036 0 0 0 -0.053,-0.66015 209.3036,209.3036 0 0 0 -0.4609,-3.49415 z"
       style="opacity:1;mix-blend-mode:multiply;fill:#d9bfd9;stroke-width:4.3389;stroke-dasharray:17.3556, 4.3389;filter:url(#filter19)"
       id="path30" />
    <path
       d="m 1585.002,345.80274 a 209.3036,209.3036 0 0 1 0.8457,6.41992 209.3036,209.3036 0 0 0 -0.6582,-5.33984 209.3036,209.3036 0 0 0 -0.1875,-1.08008 z"
       style="opacity:1;mix-blend-mode:multiply;fill:#d9bfd9;stroke-width:4.3389;stroke-dasharray:17.3556, 4.3389;filter:url(#filter19)"
       id="path29" />
    <path
       d="m 1584.2539,341.49024 a 209.3036,209.3036 0 0 1 0.7481,4.3125 209.3036,209.3036 0 0 0 -0.125,-0.94922 209.3036,209.3036 0 0 0 -0.6231,-3.36328 z"
       style="opacity:1;mix-blend-mode:multiply;fill:#d9bfd9;stroke-width:4.3389;stroke-dasharray:17.3556, 4.3389;filter:url(#filter19)"
       id="path28" />
    <path
       d="m 1583.1172,335.35157 a 209.3036,209.3036 0 0 1 1.1367,6.13867 209.3036,209.3036 0 0 0 -0.8203,-4.72851 209.3036,209.3036 0 0 0 -0.3164,-1.41016 z"
       style="opacity:1;mix-blend-mode:multiply;fill:#d9bfd9;stroke-width:4.3389;stroke-dasharray:17.3556, 4.3389;filter:url(#filter19)"
       id="path27" />
    <path
       d="m 1582.1016,330.83595 a 209.3036,209.3036 0 0 1 1.0156,4.51562 209.3036,209.3036 0 0 0 -0.2363,-1.27344 209.3036,209.3036 0 0 0 -0.7793,-3.24218 z"
       style="opacity:1;mix-blend-mode:multiply;fill:#d9bfd9;stroke-width:4.3389;stroke-dasharray:17.3556, 4.3389;filter:url(#filter19)"
       id="path26" />
    <path
       d="m 1580.7032,325.00782 a 209.3036,209.3036 0 0 1 1.3984,5.82813 209.3036,209.3036 0 0 0 -0.9199,-4.09766 209.3036,209.3036 0 0 0 -0.4785,-1.73047 z"
       style="opacity:1;mix-blend-mode:multiply;fill:#d9bfd9;stroke-width:4.3389;stroke-dasharray:17.3556, 4.3389;filter:url(#filter19)"
       id="path25" />
    <path
       d="m 1579.4336,320.42188 a 209.3036,209.3036 0 0 1 1.2696,4.58594 209.3036,209.3036 0 0 0 -0.3809,-1.58398 209.3036,209.3036 0 0 0 -0.8887,-3.00196 z"
       style="opacity:1;mix-blend-mode:multiply;fill:#d9bfd9;stroke-width:4.3389;stroke-dasharray:17.3556, 4.3389;filter:url(#filter19)"
       id="path24" />
    <path
       d="m 1577.7735,314.81641 a 209.3036,209.3036 0 0 1 1.6601,5.60547 209.3036,209.3036 0 0 0 -0.9922,-3.58398 209.3036,209.3036 0 0 0 -0.6679,-2.02149 z"
       style="opacity:1;mix-blend-mode:multiply;fill:#d9bfd9;stroke-width:4.3389;stroke-dasharray:17.3556, 4.3389;filter:url(#filter19)"
       id="path23" />
    <path
       d="m 1576.2461,310.19141 a 209.3036,209.3036 0 0 1 1.5274,4.625 209.3036,209.3036 0 0 0 -0.5625,-1.90039 209.3036,209.3036 0 0 0 -0.9649,-2.72461 z"
       style="opacity:1;mix-blend-mode:multiply;fill:#d9bfd9;stroke-width:4.3389;stroke-dasharray:17.3556, 4.3389;filter:url(#filter19)"
       id="path22" />
    <path
       d="m 1574.3125,304.73243 a 209.3036,209.3036 0 0 1 1.9336,5.45898 209.3036,209.3036 0 0 0 -1.0273,-3.10937 209.3036,209.3036 0 0 0 -0.9063,-2.34961 z"
       style="opacity:1;mix-blend-mode:multiply;fill:#d9bfd9;stroke-width:4.3389;stroke-dasharray:17.3556, 4.3389;filter:url(#filter19)"
       id="path21" />
    <path
       d="m 1572.5684,300.21094 a 209.3036,209.3036 0 0 1 1.7441,4.52149 209.3036,209.3036 0 0 0 -0.7597,-2.14453 209.3036,209.3036 0 0 0 -0.9844,-2.37696 z"
       style="opacity:1;mix-blend-mode:multiply;fill:#d9bfd9;stroke-width:4.3389;stroke-dasharray:17.3556, 4.3389;filter:url(#filter19)"
       id="path19" />
    <path
       d="m 1501.9512,208.86133 a 209.3036,209.3036 0 0 0 -0.7754,-0.5957 209.3036,209.3036 0 0 0 -9.0293,-6.20703 209.3036,209.3036 0 0 0 -9.3437,-5.72656 209.3036,209.3036 0 0 0 -9.6289,-5.22852 209.3036,209.3036 0 0 0 -9.8907,-4.7168 209.3036,209.3036 0 0 0 -10.125,-4.19336 209.3036,209.3036 0 0 0 -10.3281,-3.6582 209.3036,209.3036 0 0 0 -10.5078,-3.11133 209.3036,209.3036 0 0 0 -10.6543,-2.55859 209.3036,209.3036 0 0 0 -10.7754,-1.9961 209.3036,209.3036 0 0 0 -10.8633,-1.43164 209.3036,209.3036 0 0 0 -10.9238,-0.85937 209.3036,209.3036 0 0 0 -10.9551,-0.28711 209.3036,209.3036 0 0 0 -32.7422,2.57812 209.3036,209.3036 0 0 0 -31.9355,7.66602 209.3036,209.3036 0 0 0 -30.3438,12.56836 209.3036,209.3036 0 0 0 -28.0039,17.16211 209.3036,209.3036 0 0 0 -24.9746,21.33008 209.3036,209.3036 0 0 0 -21.3301,24.97461 209.3036,209.3036 0 0 0 -17.1601,28.00195 209.3036,209.3036 0 0 0 -12.5684,30.34375 209.3036,209.3036 0 0 0 -7.6679,31.9375 209.3036,209.3036 0 0 0 -2.5762,32.74219 209.3036,209.3036 0 0 0 2.5762,32.74219 209.3036,209.3036 0 0 0 7.6679,31.93555 209.3036,209.3036 0 0 0 8.3887,20.2539 c 0.5742,0.40557 1.1201,0.83726 1.7012,1.23633 2.3725,1.62945 4.8019,3.20483 7.2871,4.72461 2.4851,1.51978 5.0273,2.9848 7.623,4.39258 2.5957,1.40778 5.2449,2.75929 7.9492,4.05273 2.7043,1.29345 5.4626,2.52832 8.2735,3.70508 2.8108,1.17677 5.6744,2.29577 8.5898,3.35352 2.9154,1.05775 5.8825,2.05579 8.9004,2.99219 3.0179,0.93639 6.0867,1.81034 9.2051,2.62304 3.1184,0.8127 6.2871,1.56333 9.5039,2.25 3.2168,0.68667 6.4816,1.30889 9.7949,1.86719 3.3133,0.5583 6.6743,1.05288 10.0821,1.48047 3.4077,0.42759 6.8631,0.78944 10.3632,1.08398 3.5002,0.29455 7.0462,0.52053 10.6368,0.67969 3.5905,0.15916 7.2254,0.25005 10.9043,0.27149 3.6788,0.0214 7.4007,-0.0259 11.166,-0.14454 4.4735,-0.14093 8.8651,-0.38052 13.1738,-0.71679 4.3087,-0.33628 8.5341,-0.76974 12.6797,-1.29492 4.1456,-0.52519 8.2113,-1.14194 12.1953,-1.84961 3.984,-0.70768 7.8869,-1.50495 11.7109,-2.38868 3.8241,-0.88372 7.5687,-1.85484 11.2344,-2.9082 3.6657,-1.05336 7.2527,-2.18969 10.7617,-3.40625 3.509,-1.21656 6.941,-2.51339 10.295,-3.88672 3.3539,-1.37333 6.6296,-2.82203 9.83,-4.3457 3.2004,-1.52368 6.3246,-3.12147 9.3731,-4.78906 3.0485,-1.6676 6.0217,-3.40586 8.9199,-5.21094 2.8982,-1.80508 5.7211,-3.67714 8.4707,-5.61328 2.7496,-1.93614 5.4268,-3.93728 8.0293,-5.99805 2.6025,-2.06077 5.1308,-4.18235 7.5879,-6.36133 2.4571,-2.17897 4.843,-4.41432 7.1562,-6.70508 2.3133,-2.29075 4.5536,-4.63515 6.7247,-7.03125 2.171,-2.3961 4.2722,-4.84482 6.3027,-7.33984 2.0304,-2.49502 3.9913,-5.03749 5.8828,-7.625 1.8915,-2.58751 3.7127,-5.219 5.4668,-7.89258 1.7541,-2.67357 3.4403,-5.38937 5.0586,-8.14258 1.6183,-2.75321 3.1701,-5.54467 4.6543,-8.37109 1.4841,-2.82642 2.9003,-5.68688 4.2519,-8.58008 1.3517,-2.8932 2.6387,-5.81794 3.8594,-8.77148 1.2207,-2.95355 2.3755,-5.93589 3.4668,-8.94336 1.0914,-3.00747 2.1184,-6.04074 3.082,-9.09571 0.9637,-3.05496 1.8637,-6.13248 2.7012,-9.22851 0.8376,-3.09604 1.6131,-6.21113 2.3262,-9.3418 0.7131,-3.13067 1.3649,-6.27666 1.9551,-9.43555 0.5902,-3.15888 1.1189,-6.33105 1.5879,-9.51172 0.4689,-3.18066 0.8772,-6.37038 1.2265,-9.5664 0.3493,-3.19602 0.6399,-6.39857 0.8711,-9.60352 0.2313,-3.20495 0.4028,-6.41169 0.5176,-9.61914 0.1148,-3.20744 0.1719,-6.41367 0.1719,-9.61719 0,-3.20351 -0.094,-6.38169 -0.2813,-9.52929 -0.1872,-3.14761 -0.467,-6.26467 -0.8359,-9.35352 -0.3689,-3.08885 -0.828,-6.14854 -1.3731,-9.17578 -0.545,-3.02724 -1.1768,-6.02356 -1.8925,-8.98633 -0.7158,-2.96277 -1.5156,-5.89165 -2.3965,-8.78711 -0.8809,-2.89546 -1.8423,-5.75674 -2.8828,-8.58203 -1.0406,-2.82529 -2.1608,-5.61492 -3.3555,-8.36719 -1.1947,-2.75227 -2.4633,-5.46813 -3.8067,-8.14453 -0.699,-1.39276 -1.4727,-2.74556 -2.2109,-4.11719 z"
       style="opacity:1;fill:url(#radialGradient19);stroke-width:4.3389;stroke-dasharray:17.3556, 4.3389;fill-opacity:1"
       id="path18" />
    <ellipse
       style="opacity:1;fill:#b8ffb8;fill-opacity:1;stroke:#1a1a1a;stroke-width:4.3389;stroke-dasharray:none;stroke-dashoffset:0;stroke-opacity:1"
       id="path66"
       cx="1870.2975"
       cy="708.521"
       rx="116.67262"
       ry="165.46298" />
    <ellipse
       style="opacity:1;mix-blend-mode:multiply;fill:#b8ffb8;fill-opacity:1;stroke:none;stroke-width:3.42745;stroke-dasharray:none;stroke-dashoffset:0;stroke-opacity:1"
       id="ellipse78"
       cx="1804.1829"
       cy="728.31995"
       rx="44.194176"
       ry="42.426407" />
    <ellipse
       style="opacity:1;fill:#ffffff;fill-opacity:1;stroke:#1a1a1a;stroke-width:4.3389;stroke-dasharray:none;stroke-dashoffset:0;stroke-opacity:1"
       id="path67"
       cx="1802.25"
       cy="667.75"
       rx="61.75"
       ry="84.25" />
    <ellipse
       style="opacity:1;fill:#1a1a1a;fill-opacity:1;stroke:none;stroke-width:2.94087;stroke-dasharray:11.7635, 2.94087;stroke-dashoffset:0;stroke-opacity:1"
       id="ellipse67"
       cx="1821.0919"
       cy="662.34442"
       rx="40"
       ry="59.75" />
    <ellipse
       style="opacity:1;fill:#f9f9f9;fill-opacity:1;stroke:none;stroke-width:1.45205;stroke-dasharray:5.80823, 1.45205;stroke-dashoffset:0;stroke-opacity:1"
       id="ellipse68"
       cx="1799.8419"
       cy="633.09601"
       rx="19.75"
       ry="29.501562" />
    <ellipse
       style="opacity:1;fill:#f9f9f9;fill-opacity:1;stroke:none;stroke-width:0.514651;stroke-dasharray:2.05861, 0.514651;stroke-dashoffset:0;stroke-opacity:1"
       id="ellipse69"
       cx="1842.0919"
       cy="694.05072"
       rx="6.9999995"
       ry="10.456249" />
    <ellipse
       style="opacity:1;mix-blend-mode:multiply;fill:#b8ffb8;fill-opacity:1;stroke:none;stroke-width:3.42745;stroke-dasharray:none;stroke-dashoffset:0;stroke-opacity:1"
       id="path78"
       cx="1942.0687"
       cy="727.61285"
       rx="44.194176"
       ry="42.426407" />
    <ellipse
       style="opacity:1;fill:#ffffff;fill-opacity:1;stroke:#1a1a1a;stroke-width:4.3389;stroke-dasharray:none;stroke-dashoffset:0;stroke-opacity:1"
       id="ellipse70"
       cx="1943.75"
       cy="667.75"
       rx="61.75"
       ry="84.25" />
    <ellipse
       style="opacity:1;fill:#1a1a1a;fill-opacity:1;stroke:none;stroke-width:2.94087;stroke-dasharray:11.7635, 2.94087;stroke-dashoffset:0;stroke-opacity:1"
       id="ellipse71"
       cx="1962.5919"
       cy="662.34442"
       rx="40"
       ry="59.75" />
    <ellipse
       style="opacity:1;fill:#f9f9f9;fill-opacity:1;stroke:none;stroke-width:1.45205;stroke-dasharray:5.80823, 1.45205;stroke-dashoffset:0;stroke-opacity:1"
       id="ellipse72"
       cx="1941.3419"
       cy="633.09601"
       rx="19.75"
       ry="29.501562" />
    <ellipse
       style="opacity:1;fill:#f9f9f9;fill-opacity:1;stroke:none;stroke-width:0.514651;stroke-dasharray:2.05861, 0.514651;stroke-dashoffset:0;stroke-opacity:1"
       id="ellipse73"
       cx="1983.5919"
       cy="694.05072"
       rx="6.9999995"
       ry="10.456249" />
    <path
       style="opacity:1;fill:#000000;fill-opacity:1;stroke:none;stroke-width:4.3389;stroke-dasharray:17.3556, 4.3389;stroke-dashoffset:0;stroke-opacity:1"
       d="m 1834.5,795.00002 c 0.5838,-0.0607 0.9329,5.84749 5.435,13.15151 0,0 0,0 0,0 1.8058,2.93487 4.5123,6.10765 8.2146,8.29145 3.1601,1.88995 7.0512,3.03883 11.3102,3.23772 4.2086,0.20132 8.5986,-0.53963 13.0822,-1.97329 0.4262,-0.13628 0.8497,-0.27771 1.2703,-0.4237 5.7632,-2.03223 10.7996,-4.14639 15.2605,-6.99955 3.5815,-2.31228 6.4068,-4.8167 8.2424,-7.78005 1.9116,-3.00555 2.6335,-6.4219 2.7625,-9.2832 0.3428,-7.38293 -1.5874,-12.03958 -1.0777,-12.22091 0.5097,-0.18133 3.4362,3.94567 3.9242,12.19446 0.1885,3.30465 -0.3424,7.29443 -2.4565,11.15754 -2.052,3.66844 -5.1926,6.8068 -9.0925,9.42537 -4.7866,3.24156 -10.1546,5.63015 -16.0847,7.70984 -0.4562,0.16233 -0.9171,0.31898 -1.3823,0.46932 -4.8929,1.58127 -9.8496,2.3304 -14.6903,2.02233 -4.9464,-0.31928 -9.4633,-1.86037 -13.127,-4.26425 -4.2703,-2.83319 -7.0858,-6.609 -8.8171,-10.09657 0,0 0,0 0,0 -4.2253,-8.53264 -3.3576,-14.55729 -2.7738,-14.61802 z"
       id="path73"
       inkscape:path-effect="#path-effect73"
       inkscape:original-d="m 1834.5,795.00002 c 2.2165,21.30585 18.0871,32.10908 40.0514,24.38544 25.988,-9.13852 30.7692,-20.61941 24.4486,-38.38544"
       transform="matrix(0.60959467,0.19246071,-0.19246071,0.60959467,885.00192,-97.668075)"
       sodipodi:nodetypes="csc" />
    <path
       d="m 1801.0188,568.91281 a 61.481624,72.699566 0 0 0 -10.6765,1.1046 61.481624,72.699566 0 0 0 -10.3518,3.28048 61.481624,72.699566 0 0 0 -9.7126,5.35454 61.481624,72.699566 0 0 0 -8.7782,7.268 61.481624,72.699566 0 0 0 -7.5793,8.9621 61.481624,72.699566 0 0 0 -6.1466,10.38006 61.481624,72.699566 0 0 0 -4.5282,11.48465 61.481624,72.699566 0 0 0 -2.7742,12.24063 61.481624,72.699566 0 0 0 -0.2486,3.34709 c 1.3818,-0.15525 2.7782,-0.24874 4.1955,-0.24874 h 115.7451 c 0.6093,0 1.2007,0.0786 1.8037,0.10773 a 61.481624,72.699566 0 0 0 -0.4738,-3.6859 61.481624,72.699566 0 0 0 -0.7801,-4.29304 61.481624,72.699566 0 0 0 -0.9971,-4.23036 61.481624,72.699566 0 0 0 -1.2107,-4.15202 61.481624,72.699566 0 0 0 -1.421,-4.05803 61.481624,72.699566 0 0 0 -1.6265,-3.94833 61.481624,72.699566 0 0 0 -1.8236,-3.82495 61.481624,72.699566 0 0 0 -2.0174,-3.68786 61.481624,72.699566 0 0 0 -2.2012,-3.53706 61.481624,72.699566 0 0 0 -2.3768,-3.37253 61.481624,72.699566 0 0 0 -2.5456,-3.19823 61.481624,72.699566 0 0 0 -2.7049,-3.01022 61.481624,72.699566 0 0 0 -2.8521,-2.81046 61.481624,72.699566 0 0 0 -2.9912,-2.60284 61.481624,72.699566 0 0 0 -3.1188,-2.38546 61.481624,72.699566 0 0 0 -3.2348,-2.15631 61.481624,72.699566 0 0 0 -3.339,-1.92324 61.481624,72.699566 0 0 0 -3.432,-1.68039 61.481624,72.699566 0 0 0 -3.5113,-1.43167 61.481624,72.699566 0 0 0 -3.5775,-1.17901 61.481624,72.699566 0 0 0 -3.6306,-0.92246 61.481624,72.699566 0 0 0 -3.672,-0.66002 61.481624,72.699566 0 0 0 -3.6985,-0.39757 61.481624,72.699566 0 0 0 -3.7118,-0.13318 z"
       style="opacity:1;fill:#b8ffb8;fill-opacity:1;stroke:#1a1a1a;stroke-width:3.77952765;stroke-dasharray:none"
       id="path75" />
    <path
       d="m 1945.2692,568.91073 a 61.231291,72.704305 0 0 0 -10.633,1.10468 61.231291,72.704305 0 0 0 -10.3097,3.2807 61.231291,72.704305 0 0 0 -9.673,5.35489 61.231291,72.704305 0 0 0 -8.7425,7.26847 61.231291,72.704305 0 0 0 -7.5484,8.96269 61.231291,72.704305 0 0 0 -6.1215,10.38073 61.231291,72.704305 0 0 0 -4.5099,11.4854 61.231291,72.704305 0 0 0 -2.7629,12.24143 61.231291,72.704305 0 0 0 -0.2475,3.3473 c 1.376,-0.15526 2.7669,-0.24875 4.1784,-0.24875 h 115.2738 c 0.6068,0 1.1957,0.0787 1.7963,0.10773 a 61.231291,72.704305 0 0 0 -0.4717,-3.68614 61.231291,72.704305 0 0 0 -0.7769,-4.29331 61.231291,72.704305 0 0 0 -0.9931,-4.23064 61.231291,72.704305 0 0 0 -1.2058,-4.1523 61.231291,72.704305 0 0 0 -1.4153,-4.05828 61.231291,72.704305 0 0 0 -1.6198,-3.9486 61.231291,72.704305 0 0 0 -1.8162,-3.8252 61.231291,72.704305 0 0 0 -2.0092,-3.68809 61.231291,72.704305 0 0 0 -2.1922,-3.5373 61.231291,72.704305 0 0 0 -2.3672,-3.37274 61.231291,72.704305 0 0 0 -2.5352,-3.19845 61.231291,72.704305 0 0 0 -2.6938,-3.0104 61.231291,72.704305 0 0 0 -2.8405,-2.81064 61.231291,72.704305 0 0 0 -2.9791,-2.60302 61.231291,72.704305 0 0 0 -3.1061,-2.38561 61.231291,72.704305 0 0 0 -3.2216,-2.15646 61.231291,72.704305 0 0 0 -3.3255,-1.92336 61.231291,72.704305 0 0 0 -3.4179,-1.68051 61.231291,72.704305 0 0 0 -3.497,-1.43175 61.231291,72.704305 0 0 0 -3.563,-1.1791 61.231291,72.704305 0 0 0 -3.6158,-0.92252 61.231291,72.704305 0 0 0 -3.6571,-0.66005 61.231291,72.704305 0 0 0 -3.6834,-0.3976 61.231291,72.704305 0 0 0 -3.6967,-0.1332 z"
       style="opacity:1;fill:#b8ffb8;fill-opacity:1;stroke:#1a1a1a;stroke-width:3.77952765;stroke-dasharray:none"
       id="path76" />
    <path
       d="m 1963.4122,807.51955 a 128.58611,165.35565 0 0 1 -12.2813,11.82227 128.58611,165.35565 0 0 1 -16.1035,11.30859 128.58611,165.35565 0 0 1 -17.1895,8.24414 128.58611,165.35565 0 0 1 -17.9277,5.01563 128.58611,165.35565 0 0 1 -18.2988,1.68164 128.58611,165.35565 0 0 1 -18.3008,-1.68164 128.58611,165.35565 0 0 1 -17.9258,-5.01563 128.58611,165.35565 0 0 1 -17.1894,-8.24414 128.58611,165.35565 0 0 1 -16.1036,-11.30859 128.58611,165.35565 0 0 1 -14.6875,-14.13672 128.58611,165.35565 0 0 1 -12.9726,-16.6836 128.58611,165.35565 0 0 1 -10.9942,-18.88672 128.58611,165.35565 0 0 1 -8.7929,-20.70703 128.58611,165.35565 0 0 1 -6.4102,-22.10547 128.58611,165.35565 0 0 1 -3.9004,-23.05273 128.58611,165.35565 0 0 1 -0.2461,-4.42578 116.67262,165.46298 0 0 0 -0.4629,9.17773 116.67262,165.46298 0 0 0 1.1875,23.54688 116.67262,165.46298 0 0 0 3.5391,23.06836 116.67262,165.46298 0 0 0 5.8164,22.11914 116.67262,165.46298 0 0 0 7.9785,20.7207 116.67262,165.46298 0 0 0 9.9766,18.90039 116.67262,165.46298 0 0 0 11.7695,16.69336 116.67262,165.46298 0 0 0 13.3262,14.14649 116.67262,165.46298 0 0 0 14.6113,11.31445 116.67262,165.46298 0 0 0 15.5977,8.25 116.67262,165.46298 0 0 0 16.2656,5.01758 116.67262,165.46298 0 0 0 16.6035,1.68555 116.67262,165.46298 0 0 0 16.6055,-1.68555 116.67262,165.46298 0 0 0 16.2656,-5.01758 116.67262,165.46298 0 0 0 15.5977,-8.25 116.67262,165.46298 0 0 0 14.6093,-11.31445 116.67262,165.46298 0 0 0 13.3262,-14.14649 116.67262,165.46298 0 0 0 11.7715,-16.69336 116.67262,165.46298 0 0 0 4.9395,-9.35742 z"
       style="opacity:1;mix-blend-mode:multiply;fill:#b8ffb8;stroke:none;stroke-width:4.3389"
       id="path77" />
    <path
       d="m 1945.2696,568.91017 a 61.231291,72.704305 0 0 0 -5.3379,0.27734 61.231291,72.704305 0 0 0 -5.2949,0.82813 61.231291,72.704305 0 0 0 -5.2149,1.37305 61.231291,72.704305 0 0 0 -5.0957,1.9082 61.231291,72.704305 0 0 0 -4.9355,2.42578 61.231291,72.704305 0 0 0 -4.7364,2.92773 61.231291,72.704305 0 0 0 -4.5058,3.40821 61.231291,72.704305 0 0 0 -4.2383,3.86133 61.231291,72.704305 0 0 0 -2.123,2.31054 61.231291,72.704305 0 0 1 2.3808,-1.80078 61.231291,72.704305 0 0 1 4.7383,-2.92773 61.231291,72.704305 0 0 1 4.9355,-2.42774 61.231291,72.704305 0 0 1 5.0938,-1.9082 61.231291,72.704305 0 0 1 5.2148,-1.37305 61.231291,72.704305 0 0 1 5.2969,-0.82812 61.231291,72.704305 0 0 1 5.3359,-0.27539 61.231291,72.704305 0 0 1 3.6973,0.13281 61.231291,72.704305 0 0 1 3.6836,0.39648 61.231291,72.704305 0 0 1 3.6563,0.66016 61.231291,72.704305 0 0 1 3.6171,0.92383 61.231291,72.704305 0 0 1 3.5625,1.17773 61.231291,72.704305 0 0 1 3.4961,1.4336 61.231291,72.704305 0 0 1 3.418,1.67968 61.231291,72.704305 0 0 1 3.3262,1.92383 61.231291,72.704305 0 0 1 3.2207,2.15625 61.231291,72.704305 0 0 1 3.1074,2.38477 61.231291,72.704305 0 0 1 2.9785,2.60351 61.231291,72.704305 0 0 1 2.8399,2.81055 61.231291,72.704305 0 0 1 2.6953,3.00977 61.231291,72.704305 0 0 1 2.5351,3.19921 61.231291,72.704305 0 0 1 2.3672,3.37305 61.231291,72.704305 0 0 1 2.1914,3.53711 61.231291,72.704305 0 0 1 2.0098,3.6875 61.231291,72.704305 0 0 1 1.8164,3.82617 61.231291,72.704305 0 0 1 1.6191,3.94727 61.231291,72.704305 0 0 1 1.4161,4.05859 61.231291,72.704305 0 0 1 1.205,4.15235 61.231291,72.704305 0 0 1 0.9942,4.23047 61.231291,72.704305 0 0 1 0.018,0.0937 h 7.9199 c 0.6068,0 1.1943,0.0784 1.7949,0.10742 a 61.231291,72.704305 0 0 0 -0.4707,-3.68555 61.231291,72.704305 0 0 0 -0.7773,-4.29297 61.231291,72.704305 0 0 0 -0.9922,-4.23047 61.231291,72.704305 0 0 0 -1.2071,-4.15234 61.231291,72.704305 0 0 0 -1.414,-4.05859 61.231291,72.704305 0 0 0 -1.6211,-3.94922 61.231291,72.704305 0 0 0 -1.8164,-3.82422 61.231291,72.704305 0 0 0 -2.0078,-3.68946 61.231291,72.704305 0 0 0 -2.1934,-3.53711 61.231291,72.704305 0 0 0 -2.3672,-3.37109 61.231291,72.704305 0 0 0 -2.5351,-3.19922 61.231291,72.704305 0 0 0 -2.6934,-3.00976 61.231291,72.704305 0 0 0 -2.8399,-2.81055 61.231291,72.704305 0 0 0 -2.9804,-2.60352 61.231291,72.704305 0 0 0 -3.1055,-2.38672 61.231291,72.704305 0 0 0 -3.2226,-2.15625 61.231291,72.704305 0 0 0 -3.3243,-1.92187 61.231291,72.704305 0 0 0 -3.4179,-1.68164 61.231291,72.704305 0 0 0 -3.4981,-1.43164 61.231291,72.704305 0 0 0 -3.5625,-1.17969 61.231291,72.704305 0 0 0 -3.6152,-0.92187 61.231291,72.704305 0 0 0 -3.6582,-0.66016 61.231291,72.704305 0 0 0 -3.6817,-0.39844 61.231291,72.704305 0 0 0 -3.6972,-0.13281 z"
       style="opacity:1;mix-blend-mode:screen;fill:#b8ffb8;stroke:#1a1a1a;stroke-width:3.77953"
       id="path81" />
    <path
       d="m 1801.7269,568.91017 a 61.231291,72.704305 0 0 0 -5.3379,0.27734 61.231291,72.704305 0 0 0 -5.2949,0.82813 61.231291,72.704305 0 0 0 -5.2149,1.37305 61.231291,72.704305 0 0 0 -5.0957,1.9082 61.231291,72.704305 0 0 0 -4.9355,2.42578 61.231291,72.704305 0 0 0 -4.7364,2.92773 61.231291,72.704305 0 0 0 -4.5058,3.40821 61.231291,72.704305 0 0 0 -4.2383,3.86133 61.231291,72.704305 0 0 0 -2.123,2.31054 61.231291,72.704305 0 0 1 2.3808,-1.80078 61.231291,72.704305 0 0 1 4.7383,-2.92773 61.231291,72.704305 0 0 1 4.9355,-2.42774 61.231291,72.704305 0 0 1 5.0938,-1.9082 61.231291,72.704305 0 0 1 5.2148,-1.37305 61.231291,72.704305 0 0 1 5.2969,-0.82812 61.231291,72.704305 0 0 1 5.3359,-0.27539 61.231291,72.704305 0 0 1 3.6973,0.13281 61.231291,72.704305 0 0 1 3.6836,0.39648 61.231291,72.704305 0 0 1 3.6563,0.66016 61.231291,72.704305 0 0 1 3.6171,0.92383 61.231291,72.704305 0 0 1 3.5625,1.17773 61.231291,72.704305 0 0 1 3.4961,1.4336 61.231291,72.704305 0 0 1 3.418,1.67968 61.231291,72.704305 0 0 1 3.3262,1.92383 61.231291,72.704305 0 0 1 3.2207,2.15625 61.231291,72.704305 0 0 1 3.1074,2.38477 61.231291,72.704305 0 0 1 2.9785,2.60351 61.231291,72.704305 0 0 1 2.8399,2.81055 61.231291,72.704305 0 0 1 2.6953,3.00977 61.231291,72.704305 0 0 1 2.5351,3.19921 61.231291,72.704305 0 0 1 2.3672,3.37305 61.231291,72.704305 0 0 1 2.1914,3.53711 61.231291,72.704305 0 0 1 2.0098,3.6875 61.231291,72.704305 0 0 1 1.8164,3.82617 61.231291,72.704305 0 0 1 1.6191,3.94727 61.231291,72.704305 0 0 1 1.4161,4.05859 61.231291,72.704305 0 0 1 1.205,4.15235 61.231291,72.704305 0 0 1 0.9942,4.23047 61.231291,72.704305 0 0 1 0.018,0.0937 h 7.9199 c 0.6068,0 1.1943,0.0784 1.7949,0.10742 a 61.231291,72.704305 0 0 0 -0.4707,-3.68555 61.231291,72.704305 0 0 0 -0.7773,-4.29297 61.231291,72.704305 0 0 0 -0.9922,-4.23047 61.231291,72.704305 0 0 0 -1.2071,-4.15234 61.231291,72.704305 0 0 0 -1.414,-4.05859 61.231291,72.704305 0 0 0 -1.6211,-3.94922 61.231291,72.704305 0 0 0 -1.8164,-3.82422 61.231291,72.704305 0 0 0 -2.0078,-3.68946 61.231291,72.704305 0 0 0 -2.1934,-3.53711 61.231291,72.704305 0 0 0 -2.3672,-3.37109 61.231291,72.704305 0 0 0 -2.5351,-3.19922 61.231291,72.704305 0 0 0 -2.6934,-3.00976 61.231291,72.704305 0 0 0 -2.8399,-2.81055 61.231291,72.704305 0 0 0 -2.9804,-2.60352 61.231291,72.704305 0 0 0 -3.1055,-2.38672 61.231291,72.704305 0 0 0 -3.2226,-2.15625 61.231291,72.704305 0 0 0 -3.3243,-1.92187 61.231291,72.704305 0 0 0 -3.4179,-1.68164 61.231291,72.704305 0 0 0 -3.4981,-1.43164 61.231291,72.704305 0 0 0 -3.5625,-1.17969 61.231291,72.704305 0 0 0 -3.6152,-0.92187 61.231291,72.704305 0 0 0 -3.6582,-0.66016 61.231291,72.704305 0 0 0 -3.6817,-0.39844 61.231291,72.704305 0 0 0 -3.6972,-0.13281 z"
       style="opacity:1;mix-blend-mode:screen;fill:#b8ffb8;stroke:#1a1a1a;stroke-width:3.77953"
       id="path82" />
  </g>
</svg>
