<?xml version="1.0" encoding="UTF-8" standalone="no"?>
<!-- Created with Inkscape (http://www.inkscape.org/) -->

<svg
   width="210mm"
   height="297mm"
   viewBox="0 0 210 297"
   version="1.1"
   id="svg1"
   inkscape:version="1.3 (0e150ed6c4, 2023-07-21)"
   sodipodi:docname="Formas.svg"
   xmlns:inkscape="http://www.inkscape.org/namespaces/inkscape"
   xmlns:sodipodi="http://sodipodi.sourceforge.net/DTD/sodipodi-0.dtd"
   xmlns="http://www.w3.org/2000/svg"
   xmlns:svg="http://www.w3.org/2000/svg">
  <sodipodi:namedview
     id="namedview1"
     pagecolor="#505050"
     bordercolor="#ffffff"
     borderopacity="1"
     inkscape:showpageshadow="0"
     inkscape:pageopacity="0"
     inkscape:pagecheckerboard="1"
     inkscape:deskcolor="#505050"
     inkscape:document-units="mm"
     inkscape:zoom="0.72426347"
     inkscape:cx="384.52857"
     inkscape:cy="482.5592"
     inkscape:window-width="1920"
     inkscape:window-height="1009"
     inkscape:window-x="-8"
     inkscape:window-y="-8"
     inkscape:window-maximized="1"
     inkscape:current-layer="layer1" />
  <defs
     id="defs1" />
  <g
     inkscape:label="Camada 1"
     inkscape:groupmode="layer"
     id="layer1">
    <g
       id="g90"
       transform="matrix(-1,0,0,1,227.77306,0)">
      <rect
         style="opacity:1;fill:#acacac;fill-opacity:1;stroke-width:1"
         id="rect89"
         width="24.476015"
         height="10.95941"
         x="87.309959"
         y="147.76936"
         ry="4.1097803" />
      <rect
         style="opacity:1;fill:#acacac;fill-opacity:1;stroke-width:1"
         id="rect90"
         width="10.41144"
         height="23.928043"
         x="81.099632"
         y="141.37637"
         ry="4.1097803" />
    </g>
    <g
       id="g88"
       transform="translate(1.6439114,0.18265683)">
      <rect
         style="opacity:1;fill:#acacac;fill-opacity:1;stroke-width:1"
         id="rect87"
         width="24.476015"
         height="10.95941"
         x="87.309959"
         y="147.76936"
         ry="4.1097803" />
      <rect
         style="opacity:1;fill:#acacac;fill-opacity:1;stroke-width:1"
         id="rect88"
         width="10.41144"
         height="23.928043"
         x="81.099632"
         y="141.37637"
         ry="4.1097803" />
    </g>
    <rect
       style="opacity:1;fill:#b8ffb8;fill-opacity:1;stroke-width:1"
       id="rect86"
       width="23.197416"
       height="78.542435"
       x="102.83579"
       y="95.164207"
       ry="4.1097803" />
    <path
       style="opacity:1;fill:#39c169;fill-opacity:1;stroke-width:1"
       d="m 149.7786,70.870849 12.60332,6.392987 0.36531,10.411438 -12.60332,9.863471 z"
       id="path51" />
    <path
       style="opacity:1;fill:#39c169;fill-opacity:1;stroke-width:1"
       d="M 77.446493,70.870849 64.843172,77.263836 64.47786,87.675274 77.081181,97.538745 Z"
       id="path50" />
    <path
       id="path40"
       style="opacity:1;fill:#ff2a2a;fill-opacity:1;stroke:none;stroke-width:1;stroke-opacity:1"
       d="m 277.17098,32.082883 a 26.850554,26.850554 0 0 0 -25.7576,19.272725 26.850554,26.850554 0 0 0 -10.40815,-2.102714 26.850554,26.850554 0 0 0 -26.85056,26.850557 26.850554,26.850554 0 0 0 26.85056,26.850559 26.850554,26.850554 0 0 0 25.76897,-19.314068 26.850554,26.850554 0 0 0 10.39678,2.144056 26.850554,26.850554 0 0 0 26.85056,-26.850558 26.850554,26.850554 0 0 0 -26.85056,-26.850557 z" />
    <rect
       style="opacity:1;fill:#8fdeab;fill-opacity:1;stroke:none;stroke-width:1.81896;stroke-opacity:1"
       id="rect28"
       width="19.270296"
       height="77.081184"
       x="246.3477"
       y="99.300797"
       ry="9.635148" />
    <circle
       style="fill:#39c169;fill-opacity:1;stroke:none;stroke-width:1;stroke-opacity:1"
       id="circle4"
       cx="304.47827"
       cy="110.16888"
       r="14.521217" />
    <circle
       style="fill:#39c169;fill-opacity:1;stroke:none;stroke-width:1;stroke-opacity:1"
       id="path4"
       cx="205.84357"
       cy="110.16888"
       r="14.521217" />
    <path
       d="m 205.84355,95.647478 a 14.521217,14.521217 0 0 0 -2.06654,0.147795 14.521217,14.521217 0 0 0 -2.02469,0.4408 14.521217,14.521217 0 0 0 -1.94096,0.723987 14.521217,14.521217 0 0 0 -1.8185,0.992704 14.521217,14.521217 0 0 0 -1.65881,1.241784 14.521217,14.521217 0 0 0 -1.46503,1.465022 14.521217,14.521217 0 0 0 -1.24127,1.6583 14.521217,14.521217 0 0 0 -0.99322,1.8185 14.521217,14.521217 0 0 0 -0.72398,1.94147 14.521217,14.521217 0 0 0 -0.44029,2.02469 14.521217,14.521217 0 0 0 -0.14779,2.06654 14.521217,14.521217 0 0 0 0.14779,2.06654 14.521217,14.521217 0 0 0 0.44029,2.02416 14.521217,14.521217 0 0 0 0.72398,1.94149 14.521217,14.521217 0 0 0 0.99322,1.81849 14.521217,14.521217 0 0 0 1.24127,1.6583 14.521217,14.521217 0 0 0 1.46503,1.46503 14.521217,14.521217 0 0 0 1.45107,1.08624 14.521217,14.521217 0 0 1 -1.27227,-1.27228 14.521217,14.521217 0 0 1 -1.24127,-1.65881 14.521217,14.521217 0 0 1 -0.99322,-1.8185 14.521217,14.521217 0 0 1 -0.72399,-1.94096 14.521217,14.521217 0 0 1 -0.44028,-2.02469 14.521217,14.521217 0 0 1 -0.14779,-2.06654 14.521217,14.521217 0 0 1 0.14779,-2.06654 14.521217,14.521217 0 0 1 0.44028,-2.02468 14.521217,14.521217 0 0 1 0.72399,-1.94097 14.521217,14.521217 0 0 1 0.99322,-1.81849 14.521217,14.521217 0 0 1 1.24127,-1.65881 14.521217,14.521217 0 0 1 1.46503,-1.46503 14.521217,14.521217 0 0 1 1.65881,-1.241781 14.521217,14.521217 0 0 1 1.81849,-0.992705 14.521217,14.521217 0 0 1 1.94097,-0.723986 14.521217,14.521217 0 0 1 2.02468,-0.440284 14.521217,14.521217 0 0 1 2.06654,-0.147794 14.521217,14.521217 0 0 1 0.73536,0.0186 14.521217,14.521217 0 0 1 0.7338,0.05581 14.521217,14.521217 0 0 1 0.72968,0.09302 14.521217,14.521217 0 0 1 0.7245,0.129707 14.521217,14.521217 0 0 1 0.71675,0.166398 14.521217,14.521217 0 0 1 0.70693,0.202055 14.521217,14.521217 0 0 1 0.6966,0.238229 14.521217,14.521217 0 0 1 0.68317,0.272851 14.521217,14.521217 0 0 1 0.66817,0.306958 14.521217,14.521217 0 0 1 0.65216,0.340548 14.521217,14.521217 0 0 1 0.63407,0.373621 14.521217,14.521217 0 0 1 0.38499,0.253731 14.521217,14.521217 0 0 0 -0.25115,-0.227376 14.521217,14.521217 0 0 0 -0.57051,-0.464572 14.521217,14.521217 0 0 0 -0.59273,-0.435632 14.521217,14.521217 0 0 0 -0.61443,-0.405143 14.521217,14.521217 0 0 0 -0.63407,-0.373104 14.521217,14.521217 0 0 0 -0.65216,-0.340548 14.521217,14.521217 0 0 0 -0.66817,-0.306958 14.521217,14.521217 0 0 0 -0.68368,-0.272851 14.521217,14.521217 0 0 0 -0.69608,-0.238229 14.521217,14.521217 0 0 0 -0.70745,-0.202571 14.521217,14.521217 0 0 0 -0.71624,-0.165882 14.521217,14.521217 0 0 0 -0.7245,-0.130224 14.521217,14.521217 0 0 0 -0.72967,-0.0925 14.521217,14.521217 0 0 0 -0.73381,-0.05633 14.521217,14.521217 0 0 0 -0.73535,-0.0186 z"
       style="mix-blend-mode:screen;fill:#39c169"
       id="path57" />
    <circle
       style="mix-blend-mode:multiply;fill:#39c169;fill-opacity:1;stroke:none;stroke-width:0.662012;stroke-opacity:1"
       id="circle22"
       cx="206.57658"
       cy="110.16888"
       r="9.6132183" />
    <path
       d="m 270.21533,66.726763 a 7.7494726,7.5557356 0 0 1 -2.2071,0.341064 7.7494726,7.5557356 0 0 1 -2.39469,-0.370003 7.7494726,7.5557356 0 0 1 -2.16059,-1.072803 7.7494726,7.5557356 0 0 1 -1.71462,-1.671732 7.7494726,7.5557356 0 0 1 -1.10071,-2.106332 7.7494726,7.5557356 0 0 1 -0.0796,-0.490926 46.577492,46.577492 0 0 0 -0.17467,-0.02222 46.577492,46.577492 0 0 0 -2.35334,-0.179317 46.577492,46.577492 0 0 0 -2.35903,-0.05943 46.577492,46.577492 0 0 0 -6.62854,0.473873 46.577492,46.577492 0 0 0 -6.49366,1.412834 46.577492,46.577492 0 0 0 -6.22701,2.322339 46.577492,46.577492 0 0 0 -5.8322,3.184818 46.577492,46.577492 0 0 0 -5.32009,3.982703 46.577492,46.577492 0 0 0 -4.69946,4.698938 46.577492,46.577492 0 0 0 -3.9827,5.320089 46.577492,46.577492 0 0 0 -3.18482,5.832718 46.577492,46.577492 0 0 0 -2.32234,6.226494 46.577492,46.577492 0 0 0 -1.41231,6.49366 46.577492,46.577492 0 0 0 -0.47439,6.62853 46.577492,46.577492 0 0 0 0.47439,6.62905 46.577492,46.577492 0 0 0 1.41231,6.49367 46.577492,46.577492 0 0 0 2.32234,6.22649 46.577492,46.577492 0 0 0 3.18482,5.83272 46.577492,46.577492 0 0 0 3.9827,5.32009 46.577492,46.577492 0 0 0 4.69946,4.69893 46.577492,46.577492 0 0 0 5.32009,3.98271 46.577492,46.577492 0 0 0 5.8322,3.18482 46.577492,46.577492 0 0 0 6.22701,2.32233 46.577492,46.577492 0 0 0 6.49366,1.41284 46.577492,46.577492 0 0 0 6.62854,0.47387 46.577492,46.577492 0 0 0 6.62854,-0.47387 46.577492,46.577492 0 0 0 6.49366,-1.41284 46.577492,46.577492 0 0 0 6.22701,-2.32233 46.577492,46.577492 0 0 0 5.83271,-3.18482 46.577492,46.577492 0 0 0 5.32009,-3.98271 46.577492,46.577492 0 0 0 4.69894,-4.69893 46.577492,46.577492 0 0 0 3.9827,-5.32009 46.577492,46.577492 0 0 0 3.18482,-5.83272 46.577492,46.577492 0 0 0 2.32234,-6.22649 46.577492,46.577492 0 0 0 1.41283,-6.49367 46.577492,46.577492 0 0 0 0.47388,-6.62905 46.577492,46.577492 0 0 0 -0.0599,-2.35903 46.577492,46.577492 0 0 0 -0.1788,-2.35282 46.577492,46.577492 0 0 0 -0.29817,-2.34094 46.577492,46.577492 0 0 0 -0.41651,-2.322859 46.577492,46.577492 0 0 0 -0.5333,-2.299084 46.577492,46.577492 0 0 0 -0.64958,-2.268596 46.577492,46.577492 0 0 0 -0.76326,-2.232938 46.577492,46.577492 0 0 0 -0.8754,-2.191598 46.577492,46.577492 0 0 0 -0.98495,-2.144572 46.577492,46.577492 0 0 0 -1.09244,-2.091345 46.577492,46.577492 0 0 0 -1.19734,-2.033984 46.577492,46.577492 0 0 0 -1.29863,-1.970423 46.577492,46.577492 0 0 0 -1.39681,-1.901692 46.577492,46.577492 0 0 0 -1.49139,-1.829346 46.577492,46.577492 0 0 0 -0.5395,-0.59738 9.6040478,9.363946 0 0 1 -2.00814,-0.310058 9.6040478,9.363946 0 0 1 -2.67736,-1.330152 9.6040478,9.363946 0 0 1 -1.86759,-1.820044 9.6040478,9.363946 0 0 1 -1.40198,0.696082 9.6040478,9.363946 0 0 1 -2.96778,0.45837 9.6040478,9.363946 0 0 1 -2.96777,-0.45837 9.6040478,9.363946 0 0 1 -2.67736,-1.329635 9.6040478,9.363946 0 0 1 -2.12493,-2.071708 9.6040478,9.363946 0 0 1 -1.36426,-2.610693 9.6040478,9.363946 0 0 1 -0.19999,-1.232483 z"
       style="fill:#2a8a4c"
       id="path14" />
    <circle
       style="mix-blend-mode:multiply;fill:#39c169;fill-opacity:1;stroke:none;stroke-width:0.662012;stroke-opacity:1"
       id="circle21"
       cx="304.47827"
       cy="110.16888"
       r="9.6132183" />
    <path
       id="path15"
       style="fill:#dc4e88"
       d="m 296.42277,98.388588 c -0.48659,18.932372 -15.35279,34.291422 -34.29142,34.291422 -18.93863,0 -34.29142,-15.3528 -34.29142,-34.291422 0,-18.938629 16.11768,-26.509486 34.29142,-31.83742 1.98685,-0.582477 5.95621,-0.710579 8.73265,0.767451 2.39554,1.275263 4.16742,5.552494 7.48556,5.933718 2.60648,0.299462 5.68026,0.849207 7.31646,3.17069 3.81673,5.415272 10.98338,13.147808 10.75675,21.965561 z"
       sodipodi:nodetypes="ssssssss" />
    <path
       id="path32"
       style="fill:#e57aa4;fill-opacity:1"
       d="m 265.03529,66.148504 c -1.1352,0.0299 -2.15864,0.18413 -2.9037,0.402559 -0.68732,0.201498 -1.36468,0.413264 -2.04536,0.621667 0.0897,0.02149 0.18101,0.03708 0.2713,0.05633 0.16291,0.01642 0.32532,0.04171 0.48886,0.04961 0.40576,0.01961 0.81539,-0.0037 1.21957,-0.03566 0.56598,-0.04473 1.12042,-0.127138 1.67793,-0.230993 0.79218,-0.16136 1.5658,-0.39611 2.33836,-0.630969 0.21054,-0.06379 0.42333,-0.121776 0.63769,-0.173117 -0.57423,-0.04905 -1.14243,-0.0737 -1.68414,-0.05943 z m 2.91196,0.548803 c -0.0539,-7.09e-4 -0.11535,2.82e-4 -0.1912,0.0031 -0.5083,0.01891 -1.00214,0.152285 -1.48621,0.298173 -0.13402,0.04074 -0.26892,0.0785 -0.40308,0.118856 0.12825,0.101562 0.25097,0.211115 0.37207,0.319877 0.38852,0.351843 0.69703,0.776438 0.9586,1.227832 0.24359,0.438656 0.33361,0.928568 0.39481,1.420068 0.0587,0.518147 0.0741,1.03763 0.03,1.557011 -0.003,0.0371 -0.008,0.07405 -0.0119,0.111104 0.0824,0.03818 0.16515,0.07558 0.24598,0.116789 0.59378,0.302764 1.14288,0.687556 1.74615,0.973067 0.39186,0.181621 0.77587,0.371382 1.21284,0.414962 0.41826,0.04172 0.77637,-0.07944 1.15962,-0.23151 0.42321,-0.17814 0.83581,-0.37527 1.25419,-0.564307 0.55733,-0.251819 0.53133,-0.234079 1.11569,-0.487825 0.22363,-0.09709 0.44637,-0.195296 0.66973,-0.293006 0.0713,-0.03154 0.14301,-0.06309 0.21446,-0.09457 -0.38546,-0.358394 -0.75223,-0.750052 -1.11001,-1.147733 -0.52818,0.106362 -1.09394,0.199266 -1.5999,0.105936 -0.1,-0.01845 -0.28102,-0.111942 -0.37052,-0.154512 -0.35651,-0.218458 -0.66857,-0.495745 -0.97565,-0.778247 -0.25512,-0.245138 -0.50846,-0.501012 -0.68007,-0.813904 -0.15165,-0.293148 -0.25755,-0.605131 -0.38912,-0.907438 -0.11055,-0.269687 -0.20819,-0.505864 -0.44235,-0.694015 -0.0971,-0.07561 -0.14115,-0.117379 -0.25373,-0.174149 -0.30557,-0.154085 -0.64874,-0.2218 -0.98237,-0.28112 -0.22154,-0.02532 -0.31636,-0.04232 -0.47801,-0.04444 z m 2.49494,0.421163 c 0.0997,0.157815 0.17746,0.330779 0.25838,0.526583 0.12752,0.282732 0.22011,0.580503 0.36484,0.855245 0.1423,0.247253 0.34815,0.45053 0.55345,0.645439 0.27545,0.246458 0.54596,0.502336 0.86455,0.692464 0.0546,0.0243 0.1904,0.08957 0.2496,0.09767 0.14819,0.02036 0.51019,-0.01431 0.6134,-0.02687 0.0958,-0.01166 0.18309,-0.02458 0.26768,-0.03772 -0.90928,-1.034533 -1.7824,-2.037878 -2.7497,-2.552816 -0.13657,-0.0727 -0.28024,-0.134927 -0.4222,-0.199988 z m -5.3976,0.240296 c -0.39114,0.108144 -0.78465,0.207747 -1.18288,0.288354 -0.58407,0.107983 -1.16515,0.194446 -1.75803,0.240296 -0.43925,0.03397 -0.88472,0.05803 -1.3255,0.03307 -0.19007,-0.01076 -0.37818,-0.04166 -0.56741,-0.06253 -0.15436,-0.0384 -0.31214,-0.06487 -0.46302,-0.115238 -0.19218,-0.06416 -0.37197,-0.171901 -0.52813,-0.306442 -16.94702,5.29458 -31.37948,13.033345 -31.37948,30.952116 0,18.938488 15.35296,34.291448 34.29145,34.291448 18.93849,0 33.80434,-15.35921 34.29093,-34.291448 0.21863,-8.506616 -6.41698,-15.982074 -10.3141,-21.36252 -0.23577,-0.05419 -0.46932,-0.11917 -0.6997,-0.195854 -0.23647,-0.08709 -0.37002,-0.142675 -0.54932,-0.222725 0.001,0.10529 -0.0435,0.231593 -0.15606,0.362768 -0.16243,0.189354 -0.34032,0.364691 -0.55863,0.489893 -0.14466,0.07943 -0.19544,0.114892 -0.35605,0.168982 -0.21074,0.07097 -0.43198,0.07799 -0.65009,0.10852 -0.27893,0.05481 -0.55893,0.126201 -0.7984,0.286288 -0.29032,0.235266 -0.33347,0.365089 -0.29507,0.746207 0.0155,0.05578 0.0255,0.113472 0.0465,0.167432 0.14814,0.38126 0.43084,0.699305 0.68058,1.014925 0.38164,0.426984 0.8059,0.807358 1.24127,1.17874 0.48634,0.414889 0.033,0.867675 -0.45682,0.456819 -0.44748,-0.375362 -0.87495,-0.770208 -1.26556,-1.204577 -0.28916,-0.359727 -0.60396,-0.726576 -0.77876,-1.160653 -0.0346,-0.08595 -0.057,-0.176373 -0.0853,-0.264583 -0.0664,-0.359221 -0.0536,-0.728426 0.14263,-1.048515 0.11171,-0.182252 0.19494,-0.237651 0.34881,-0.375171 0.32227,-0.241012 0.70546,-0.352505 1.09399,-0.430465 0.20047,-0.04068 0.4123,-0.0251 0.60617,-0.09767 0.0819,-0.03067 0.1345,-0.06577 0.2098,-0.109554 0.15025,-0.08857 0.27145,-0.212087 0.38241,-0.344682 0.0698,-0.08343 0.1419,-0.139925 0.21187,-0.174666 -0.40847,-0.230807 -0.79203,-0.501869 -1.11052,-0.850078 -0.21792,-0.292759 -0.29716,-0.363303 -0.4408,-0.697632 -0.085,-0.19767 -0.13597,-0.403275 -0.16589,-0.612365 -1.24668,-0.495789 -2.62584,-0.739379 -3.92327,-0.901237 -0.28304,0.572646 -0.5216,1.166511 -0.70332,1.778703 0.0937,0.11451 0.0732,0.279305 -0.10542,0.399458 -0.0217,0.0928 -0.0454,0.18506 -0.0682,0.277503 -0.0621,0.456195 -0.12036,0.689978 -0.0796,1.152384 0.0598,0.67502 0.31616,1.336325 0.62167,1.934766 0.10997,0.215397 0.2418,0.418971 0.36277,0.628385 0.53958,0.860924 1.27098,1.565627 2.1425,2.087211 0.54101,0.323788 0.89811,0.458779 1.47226,0.710551 0.68449,0.271522 1.38827,0.50933 2.11408,0.643889 0.79299,0.147002 1.59804,0.188417 2.40141,0.230477 l 0.65164,0.0078 c 0.63911,0.0075 0.62936,0.653955 -0.008,0.645955 -0.22591,-0.0028 -0.45157,-0.006 -0.67748,-0.0088 -0.84225,-0.04459 -1.68454,-0.09055 -2.51561,-0.246496 -0.76434,-0.14342 -1.5055,-0.39467 -2.22622,-0.681612 -0.62093,-0.273852 -0.98962,-0.413351 -1.57561,-0.768429 -0.95204,-0.576874 -1.74949,-1.354541 -2.33888,-2.299084 -0.13104,-0.229257 -0.27426,-0.452078 -0.39326,-0.687814 -0.21965,-0.435298 -0.44802,-1.006762 -0.56275,-1.48208 -0.15443,-0.639682 -0.14621,-1.28119 -0.0305,-1.923397 -0.0768,0.01573 -0.15392,0.03084 -0.23099,0.04444 -0.50704,0.06295 -1.02302,-0.02655 -1.52291,-0.112138 -0.42971,-0.06425 -0.84559,-0.18223 -1.23868,-0.366386 -0.24943,-0.123701 -0.49606,-0.252168 -0.73484,-0.395324 -0.1713,-0.08833 -0.32674,-0.202335 -0.48989,-0.303858 -0.16627,-0.108593 -0.33765,-0.206739 -0.51522,-0.295589 -0.19616,-0.08504 -0.39139,-0.17273 -0.59118,-0.24908 -0.1432,-0.04623 -0.28203,-0.105046 -0.42426,-0.153996 -0.0247,-0.0085 -0.0467,-0.01864 -0.0687,-0.02842 -0.35741,0.06744 -0.71399,0.07054 -1.13326,-0.03566 -0.37816,-0.09578 -0.62966,-0.229336 -0.98082,-0.38964 -0.61902,-0.289057 -1.18016,-0.68485 -1.78801,-0.994255 -0.006,-0.003 -0.0122,-0.0053 -0.0181,-0.0083 -0.0375,0.259566 -0.0792,0.51879 -0.12093,0.77773 -0.10172,0.631156 -0.73939,0.52832 -0.63768,-0.102836 0.0498,-0.309385 0.0988,-0.619157 0.14107,-0.929659 -0.81108,-0.286487 -1.66817,-0.39598 -2.52181,-0.478007 -0.83979,-0.06645 -1.68424,-0.107093 -2.51406,-0.261999 -0.53629,-0.100111 -0.74702,-0.167294 -1.27382,-0.307992 -0.52161,-0.139779 -1.02763,-0.325873 -1.53221,-0.516247 -0.52337,-0.197473 -0.41437,-0.685338 0.0217,-0.652674 0.0623,0.0047 0.13144,0.02031 0.20619,0.04858 0.48441,0.183147 0.97089,0.362244 1.47174,0.496611 0.49405,0.132555 0.70478,0.199102 1.20665,0.293522 0.81709,0.153729 1.64897,0.190565 2.47581,0.257348 0.85687,0.0829 1.71605,0.195833 2.53473,0.464055 0.0348,-0.450771 0.0165,-0.901494 -0.0325,-1.351339 -0.0495,-0.405707 -0.11592,-0.812623 -0.31368,-1.176672 -0.22513,-0.393894 -0.49443,-0.763172 -0.83096,-1.070219 -0.21885,-0.19746 -0.44012,-0.402412 -0.709,-0.5302 -0.0191,-0.0091 -0.0359,-0.01872 -0.0532,-0.02842 z m 10.72441,4.692736 c -0.16441,0.0734 -0.32823,0.147803 -0.493,0.220659 -0.22413,0.09805 -0.44792,0.196609 -0.67231,0.294039 -0.58221,0.252786 -0.5609,0.236947 -1.11259,0.486275 -0.35804,0.161807 -0.71324,0.326131 -1.0728,0.483175 0.13478,0.05653 0.26915,0.114447 0.40256,0.173632 0.19568,0.09853 0.38532,0.206491 0.56895,0.326079 0.15858,0.100398 0.31171,0.210099 0.47853,0.297139 0.22089,0.132464 0.44892,0.250566 0.67954,0.365353 0.33784,0.163367 0.70057,0.255339 1.07074,0.313159 0.26101,0.04505 0.52097,0.08494 0.78496,0.10852 0.0624,0.0056 0.30564,0.02427 0.38964,0.02067 0.0431,-0.0018 0.0854,-0.01104 0.12816,-0.01654 0.17047,-0.02955 0.33908,-0.06825 0.50695,-0.11007 0.004,-0.0142 0.007,-0.02873 0.0109,-0.04289 0.17544,-0.605668 0.40583,-1.193948 0.67696,-1.7632 -0.87953,-0.153366 -1.64342,-0.59313 -2.34714,-1.156002 z m 7.68635,2.499073 c 0.0438,0.111464 0.0999,0.221242 0.17208,0.329695 0.06,0.09018 0.13297,0.171302 0.19947,0.256832 0.45875,0.484307 1.00287,0.776505 1.60662,1.011825 -0.5506,-0.680538 -1.22086,-1.208108 -1.97817,-1.598352 z" />
    <path
       d="m 269.89184,71.541973 a 8.5244198,8.5244198 0 0 1 -1.10898,0.1757 8.5244198,8.5244198 0 0 1 -2.63395,-0.417546 8.5244198,8.5244198 0 0 1 -2.3766,-1.210779 8.5244198,8.5244198 0 0 1 -1.88567,-1.885673 8.5244198,8.5244198 0 0 1 -1.21078,-2.376599 8.5244198,8.5244198 0 0 1 -0.41754,-2.633948 8.5244198,8.5244198 0 0 1 0.29145,-1.83813 46.577492,46.577492 0 0 0 -0.1664,-0.02119 46.577492,46.577492 0 0 0 -2.35334,-0.179317 46.577492,46.577492 0 0 0 -2.35903,-0.05943 46.577492,46.577492 0 0 0 -6.62854,0.473873 46.577492,46.577492 0 0 0 -6.49366,1.412834 46.577492,46.577492 0 0 0 -6.22701,2.322339 46.577492,46.577492 0 0 0 -5.8322,3.184818 46.577492,46.577492 0 0 0 -5.32009,3.982703 46.577492,46.577492 0 0 0 -4.69946,4.698938 46.577492,46.577492 0 0 0 -3.9827,5.320089 46.577492,46.577492 0 0 0 -3.18482,5.832718 46.577492,46.577492 0 0 0 -2.32234,6.226494 46.577492,46.577492 0 0 0 -1.41231,6.493663 46.577492,46.577492 0 0 0 -0.47439,6.62853 46.577492,46.577492 0 0 0 0.47439,6.62905 46.577492,46.577492 0 0 0 1.41231,6.49367 46.577492,46.577492 0 0 0 2.32234,6.22649 46.577492,46.577492 0 0 0 3.18482,5.83272 46.577492,46.577492 0 0 0 3.9827,5.32009 46.577492,46.577492 0 0 0 4.69946,4.69893 46.577492,46.577492 0 0 0 5.32009,3.98271 46.577492,46.577492 0 0 0 5.8322,3.18482 46.577492,46.577492 0 0 0 6.22701,2.32233 46.577492,46.577492 0 0 0 6.49366,1.41284 46.577492,46.577492 0 0 0 6.62854,0.47387 46.577492,46.577492 0 0 0 6.62854,-0.47387 46.577492,46.577492 0 0 0 6.49366,-1.41284 46.577492,46.577492 0 0 0 6.22701,-2.32233 46.577492,46.577492 0 0 0 5.83271,-3.18482 46.577492,46.577492 0 0 0 5.32009,-3.98271 46.577492,46.577492 0 0 0 4.69894,-4.69893 46.577492,46.577492 0 0 0 3.9827,-5.32009 46.577492,46.577492 0 0 0 3.18482,-5.83272 46.577492,46.577492 0 0 0 2.32234,-6.22649 46.577492,46.577492 0 0 0 1.41283,-6.49367 46.577492,46.577492 0 0 0 0.47388,-6.62905 46.577492,46.577492 0 0 0 -0.0599,-2.35903 46.577492,46.577492 0 0 0 -0.1788,-2.35282 46.577492,46.577492 0 0 0 -0.29817,-2.34095 46.577492,46.577492 0 0 0 -0.41651,-2.322852 46.577492,46.577492 0 0 0 -0.5333,-2.299084 46.577492,46.577492 0 0 0 -0.64958,-2.268596 46.577492,46.577492 0 0 0 -0.76326,-2.232938 46.577492,46.577492 0 0 0 -0.8754,-2.191598 46.577492,46.577492 0 0 0 -0.98495,-2.144572 46.577492,46.577492 0 0 0 -1.09244,-2.091345 46.577492,46.577492 0 0 0 -1.19734,-2.033984 46.577492,46.577492 0 0 0 -1.29863,-1.970423 46.577492,46.577492 0 0 0 -1.09296,-1.488281 10.849261,10.849261 0 0 1 -0.13022,0.02067 10.849261,10.849261 0 0 1 -3.35225,-0.531234 10.849261,10.849261 0 0 1 -2.97398,-1.515153 10.849261,10.849261 0 0 1 -2.72025,1.385962 10.849261,10.849261 0 0 1 -3.35276,0.531233 10.849261,10.849261 0 0 1 -3.35225,-0.531233 10.849261,10.849261 0 0 1 -3.02463,-1.540991 10.849261,10.849261 0 0 1 -2.40037,-2.399854 10.849261,10.849261 0 0 1 -1.54099,-3.024622 10.849261,10.849261 0 0 1 -0.0677,-0.428397 z"
       style="fill:#8fdeab"
       id="path11" />
    <rect
       style="mix-blend-mode:multiply;fill:#d2906d;fill-opacity:1;stroke:none;stroke-width:1;stroke-opacity:1"
       id="rect25"
       width="17.352398"
       height="41.463097"
       x="248.37776"
       y="95.884254"
       rx="0"
       ry="8.676199" />
    <rect
       style="fill:#b8ffb8;stroke-width:1"
       id="rect1"
       width="77.446487"
       height="77.446487"
       x="74.630981"
       y="34.292011"
       ry="0" />
    <path
       sodipodi:type="star"
       style="fill:#b8ffb8;stroke-width:1"
       id="path2"
       inkscape:flatsided="true"
       sodipodi:sides="3"
       sodipodi:cx="80.369003"
       sodipodi:cy="247.68265"
       sodipodi:r1="48.986095"
       sodipodi:r2="24.493048"
       sodipodi:arg1="1.5707963"
       sodipodi:arg2="2.6179939"
       inkscape:rounded="0"
       inkscape:randomized="0"
       d="M 80.369005,296.66874 37.9458,223.1896 l 84.84641,0 z"
       inkscape:transform-center-y="-21.948565"
       transform="matrix(0.89611409,1.5521151,-1.5521151,0.89611409,272.18282,-204.34374)"
       inkscape:transform-center-x="-7.9891594e-06" />
    <path
       d="m 237.3331,85.053293 c -0.21439,0 -0.42593,0.01098 -0.63459,0.03204 -0.20866,0.02106 -0.41408,0.05243 -0.61598,0.09353 -0.2019,0.04111 -0.40016,0.0918 -0.59428,0.151928 -0.19412,0.06013 -0.38416,0.129616 -0.56948,0.207739 -0.18532,0.07812 -0.36607,0.16535 -0.54157,0.26045 -0.17549,0.0951 -0.34591,0.197971 -0.51056,0.309025 -0.16465,0.111053 -0.32367,0.230064 -0.47645,0.35605 -0.15279,0.125986 -0.29936,0.259046 -0.43925,0.398942 -0.1399,0.139897 -0.27296,0.286465 -0.39895,0.43925 -0.12598,0.152785 -0.24499,0.311805 -0.35605,0.476457 -0.11105,0.164651 -0.21392,0.335067 -0.30902,0.510563 -0.0951,0.175496 -0.18233,0.35625 -0.26045,0.541569 -0.0781,0.185319 -0.14762,0.375354 -0.20774,0.569474 -0.0601,0.19412 -0.11082,0.39238 -0.15193,0.594279 -0.0411,0.201899 -0.0725,0.407327 -0.0935,0.615983 -0.003,0.03263 -0.002,0.06644 -0.005,0.09922 l 4.4726,3.814754 -4.49895,1.596802 v 12.331032 c 0,0.21439 0.0105,0.42593 0.0315,0.63458 0.0211,0.20866 0.0524,0.41409 0.0935,0.61599 0.0411,0.2019 0.0918,0.40015 0.15192,0.59427 0.0601,0.19413 0.12962,0.38416 0.20774,0.56948 0.0781,0.18532 0.16535,0.36607 0.26045,0.54157 0.0951,0.17549 0.19797,0.34591 0.30903,0.51056 0.11105,0.16465 0.23006,0.32367 0.35605,0.47646 0.12598,0.15278 0.25904,0.29935 0.39894,0.43925 0.1399,0.13989 0.28647,0.27295 0.43925,0.39894 0.15278,0.12599 0.31181,0.245 0.47646,0.35605 0.16465,0.11105 0.33506,0.21393 0.51056,0.30903 0.1755,0.0951 0.35625,0.18232 0.54157,0.26044 0.18532,0.0781 0.37535,0.14762 0.56947,0.20774 0.19412,0.0601 0.39238,0.11083 0.59428,0.15193 0.2019,0.0411 0.40733,0.0725 0.61598,0.0935 0.20866,0.0211 0.4202,0.0315 0.63459,0.0315 0.21439,0 0.42645,-0.0105 0.6351,-0.0315 0.20866,-0.0211 0.41409,-0.0524 0.61599,-0.0935 0.2019,-0.0411 0.40016,-0.0918 0.59428,-0.15193 0.19412,-0.0601 0.38415,-0.12961 0.56947,-0.20774 0.18532,-0.0781 0.36607,-0.16535 0.54157,-0.26044 0.1755,-0.0951 0.34591,-0.19798 0.51056,-0.30903 0.16465,-0.11105 0.32367,-0.23006 0.47646,-0.35605 0.15278,-0.12599 0.29935,-0.25905 0.43925,-0.39894 0.13989,-0.1399 0.27295,-0.28647 0.39894,-0.43925 0.12599,-0.15279 0.24448,-0.31181 0.35553,-0.47646 0.11106,-0.16465 0.21445,-0.33507 0.30955,-0.51056 0.0951,-0.1755 0.18232,-0.35625 0.26045,-0.54157 0.0781,-0.18532 0.14709,-0.37535 0.20722,-0.56948 0.0601,-0.19412 0.11134,-0.39237 0.15244,-0.59427 0.0411,-0.2019 0.0725,-0.40733 0.0935,-0.61599 0.0211,-0.20865 0.0315,-0.42019 0.0315,-0.63458 V 91.245163 c 0,-0.214392 -0.0105,-0.42593 -0.0315,-0.634587 -0.0211,-0.208656 -0.0524,-0.414084 -0.0935,-0.615983 -0.0411,-0.201899 -0.0923,-0.400159 -0.15244,-0.594279 -0.0601,-0.19412 -0.1291,-0.384155 -0.20722,-0.569474 -0.0781,-0.185319 -0.16535,-0.366073 -0.26045,-0.541569 -0.0951,-0.175496 -0.19849,-0.345912 -0.30955,-0.510563 -0.11105,-0.164652 -0.22954,-0.323672 -0.35553,-0.476457 -0.12599,-0.152785 -0.25905,-0.299353 -0.39894,-0.43925 -0.1399,-0.139896 -0.28647,-0.272956 -0.43925,-0.398942 -0.15279,-0.125986 -0.31181,-0.244997 -0.47646,-0.35605 -0.16465,-0.111054 -0.33506,-0.213926 -0.51056,-0.309025 -0.1755,-0.0951 -0.35625,-0.182326 -0.54157,-0.26045 -0.18532,-0.07812 -0.37535,-0.147613 -0.56947,-0.207739 -0.19412,-0.06012 -0.39238,-0.110823 -0.59428,-0.151928 -0.2019,-0.04111 -0.40733,-0.07247 -0.61599,-0.09353 -0.20865,-0.02106 -0.42071,-0.03204 -0.6351,-0.03204 z"
       style="fill:#110a05;stroke-width:0.713656"
       id="path7" />
    <path
       d="m 276.20962,85.053293 c -0.21439,0 -0.42593,0.01098 -0.63459,0.03204 -0.20865,0.02106 -0.41408,0.05243 -0.61598,0.09353 -0.2019,0.04111 -0.40016,0.0918 -0.59428,0.151928 -0.19412,0.06013 -0.38415,0.129616 -0.56947,0.207739 -0.18532,0.07812 -0.36607,0.16535 -0.54157,0.26045 -0.1755,0.0951 -0.34591,0.197971 -0.51056,0.309025 -0.16465,0.111053 -0.32367,0.230064 -0.47646,0.35605 -0.15278,0.125986 -0.29935,0.259046 -0.43925,0.398942 -0.1399,0.139897 -0.27295,0.286465 -0.39894,0.43925 -0.12599,0.152785 -0.245,0.311805 -0.35605,0.476457 -0.11105,0.164651 -0.21393,0.335067 -0.30903,0.510563 -0.0951,0.175496 -0.18232,0.35625 -0.26045,0.541569 -0.0781,0.185319 -0.14761,0.375354 -0.20773,0.569474 -0.0601,0.19412 -0.11083,0.39238 -0.15193,0.594279 -0.0411,0.201899 -0.0725,0.407327 -0.0935,0.615983 -0.003,0.03263 -0.002,0.06644 -0.005,0.09922 l 4.47259,3.814754 -4.49895,1.596802 v 12.331032 c 0,0.21439 0.0105,0.42593 0.0315,0.63458 0.0211,0.20866 0.0524,0.41409 0.0935,0.61599 0.0411,0.2019 0.0918,0.40015 0.15193,0.59427 0.0601,0.19413 0.12962,0.38416 0.20774,0.56948 0.0781,0.18532 0.16535,0.36607 0.26045,0.54157 0.0951,0.17549 0.19797,0.34591 0.30902,0.51056 0.11106,0.16465 0.23007,0.32367 0.35605,0.47646 0.12599,0.15278 0.25905,0.29935 0.39895,0.43925 0.13989,0.13989 0.28646,0.27295 0.43925,0.39894 0.15278,0.12599 0.3118,0.245 0.47645,0.35605 0.16465,0.11105 0.33507,0.21393 0.51057,0.30903 0.17549,0.0951 0.35625,0.18232 0.54156,0.26044 0.18532,0.0781 0.37536,0.14762 0.56948,0.20774 0.19412,0.0601 0.39238,0.11083 0.59428,0.15193 0.2019,0.0411 0.40732,0.0725 0.61598,0.0935 0.20866,0.0211 0.4202,0.0315 0.63459,0.0315 0.21439,0 0.42645,-0.0105 0.6351,-0.0315 0.20866,-0.0211 0.41409,-0.0524 0.61599,-0.0935 0.2019,-0.0411 0.40016,-0.0918 0.59428,-0.15193 0.19412,-0.0601 0.38415,-0.12961 0.56947,-0.20774 0.18532,-0.0781 0.36607,-0.16535 0.54157,-0.26044 0.1755,-0.0951 0.34591,-0.19798 0.51056,-0.30903 0.16465,-0.11105 0.32367,-0.23006 0.47646,-0.35605 0.15278,-0.12599 0.29935,-0.25905 0.43925,-0.39894 0.13989,-0.1399 0.27295,-0.28647 0.39894,-0.43925 0.12599,-0.15279 0.24448,-0.31181 0.35553,-0.47646 0.11106,-0.16465 0.21445,-0.33507 0.30955,-0.51056 0.0951,-0.1755 0.18232,-0.35625 0.26045,-0.54157 0.0781,-0.18532 0.14709,-0.37535 0.20722,-0.56948 0.0601,-0.19412 0.11134,-0.39237 0.15244,-0.59427 0.0411,-0.2019 0.0725,-0.40733 0.0935,-0.61599 0.0211,-0.20865 0.0315,-0.42019 0.0315,-0.63458 V 91.245163 c 0,-0.214392 -0.0105,-0.42593 -0.0315,-0.634587 -0.0211,-0.208656 -0.0524,-0.414084 -0.0935,-0.615983 -0.0411,-0.201899 -0.0923,-0.400159 -0.15244,-0.594279 -0.0601,-0.19412 -0.1291,-0.384155 -0.20722,-0.569474 -0.0781,-0.185319 -0.16535,-0.366073 -0.26045,-0.541569 -0.0951,-0.175496 -0.19849,-0.345912 -0.30955,-0.510563 -0.11105,-0.164652 -0.22954,-0.323672 -0.35553,-0.476457 -0.12599,-0.152785 -0.25905,-0.299353 -0.39894,-0.43925 -0.1399,-0.139896 -0.28647,-0.272956 -0.43925,-0.398942 -0.15279,-0.125986 -0.31181,-0.244997 -0.47646,-0.35605 -0.16465,-0.111054 -0.33506,-0.213926 -0.51056,-0.309025 -0.1755,-0.0951 -0.35625,-0.182326 -0.54157,-0.26045 -0.18532,-0.07812 -0.37535,-0.147613 -0.56947,-0.207739 -0.19412,-0.06012 -0.39238,-0.110823 -0.59428,-0.151928 -0.2019,-0.04111 -0.40733,-0.07247 -0.61599,-0.09353 -0.20865,-0.02106 -0.42071,-0.03204 -0.6351,-0.03204 z"
       style="fill:#110a05;stroke-width:0.713656"
       id="path8" />
    <path
       d="m 237.67879,142.65989 h 37.61152 c -0.0153,-0.31345 -0.0153,-0.63137 -0.0465,-0.94047 -0.0641,-0.63542 -0.1596,-1.2616 -0.28475,-1.87643 -0.12516,-0.61486 -0.28092,-1.21836 -0.46402,-1.80951 -0.18309,-0.59116 -0.39399,-1.17028 -0.6319,-1.73462 -0.23792,-0.56435 -0.50226,-1.11397 -0.79188,-1.6484 -0.28961,-0.53445 -0.60455,-1.05284 -0.94275,-1.55425 -0.33819,-0.50142 -0.69976,-0.98574 -1.08343,-1.451 -0.38366,-0.46528 -0.78901,-0.91154 -1.21501,-1.33757 -0.42604,-0.426 -0.8723,-0.8325 -1.33756,-1.21616 -0.46528,-0.38367 -0.94959,-0.74524 -1.45101,-1.08343 -0.50142,-0.3382 -1.01981,-0.65203 -1.55424,-0.94161 -0.53445,-0.28962 -1.0852,-0.5551 -1.64955,-0.79301 -0.56435,-0.23792 -1.14233,-0.44882 -1.73348,-0.63191 -0.59115,-0.18309 -1.1958,-0.3377 -1.81064,-0.46286 -0.61485,-0.12516 -1.23989,-0.22062 -1.87531,-0.28477 -0.63539,-0.0641 -1.28141,-0.0975 -1.93429,-0.0975 -0.65288,0 -1.29773,0.0334 -1.93315,0.0975 -0.63541,0.0641 -1.26045,0.1596 -1.87531,0.28477 -0.61483,0.12515 -1.21948,0.27977 -1.81063,0.46286 -0.59116,0.18309 -1.16913,0.39399 -1.73348,0.63191 -0.56435,0.23791 -1.1151,0.50339 -1.64954,0.79301 -0.53443,0.28958 -1.05282,0.60341 -1.55424,0.94161 -0.50142,0.33819 -0.98574,0.69976 -1.45101,1.08343 -0.46528,0.38366 -0.91152,0.79016 -1.33756,1.21616 -0.42603,0.42603 -0.83136,0.87229 -1.21501,1.33757 -0.38366,0.46526 -0.74525,0.94958 -1.08344,1.451 -0.33819,0.50141 -0.65316,1.0198 -0.94275,1.55425 -0.28961,0.53443 -0.55399,1.08405 -0.79188,1.6484 -0.2379,0.56434 -0.44881,1.14346 -0.6319,1.73462 -0.18309,0.59115 -0.33883,1.19465 -0.464,1.80951 -0.12516,0.61483 -0.22062,1.24101 -0.28477,1.87643 -0.0312,0.3091 -0.0303,0.62702 -0.0465,0.94047 z"
       style="fill:#200610;fill-opacity:1;stroke-width:2.19536"
       id="path16" />
    <path
       d="m 264.84563,126.73861 h -16.72249 c -0.2156,0.10646 -0.43061,0.21345 -0.64131,0.32763 -0.26721,0.14479 -0.53053,0.29575 -0.78961,0.45268 -0.25908,0.15693 -0.5141,0.32028 -0.76481,0.48938 -0.25071,0.16909 -0.49706,0.34389 -0.73898,0.52451 -0.24191,0.18063 -0.47894,0.36679 -0.71158,0.55863 -0.23264,0.19183 -0.4607,0.38938 -0.68368,0.59221 -0.22297,0.20283 -0.4412,0.41073 -0.65422,0.62373 -0.21302,0.21302 -0.42068,0.43125 -0.62322,0.65423 -0.20254,0.22298 -0.39987,0.45104 -0.5917,0.68368 -0.0793,0.0962 -0.15355,0.19673 -0.23099,0.29455 h 29.58321 c -0.0774,-0.0978 -0.15165,-0.19834 -0.231,-0.29455 -0.19183,-0.23264 -0.38915,-0.4607 -0.59169,-0.68368 -0.20255,-0.22298 -0.41074,-0.44121 -0.62374,-0.65423 -0.21302,-0.213 -0.43072,-0.4209 -0.6537,-0.62373 -0.22298,-0.20283 -0.45105,-0.40038 -0.68368,-0.59221 -0.23264,-0.19184 -0.47019,-0.378 -0.7121,-0.55863 -0.24192,-0.18062 -0.48827,-0.35542 -0.73898,-0.52451 -0.25071,-0.1691 -0.50573,-0.33245 -0.76481,-0.48938 -0.25908,-0.15693 -0.52188,-0.30789 -0.7891,-0.45268 -0.21072,-0.1142 -0.42619,-0.22115 -0.64182,-0.32763 z"
       style="fill:#ffffff;fill-opacity:1;stroke-width:2.19536"
       id="path45" />
    <path
       d="m 257.14533,132.03131 a 11.902458,7.1236162 0 0 0 -1.8619,0.0879 11.902458,7.1236162 0 0 0 -1.81643,0.26096 11.902458,7.1236162 0 0 0 -1.72548,0.42789 11.902458,7.1236162 0 0 0 -1.59215,0.58394 11.902458,7.1236162 0 0 0 -1.42058,0.72605 11.902458,7.1236162 0 0 0 -1.21285,0.85008 11.902458,7.1236162 0 0 0 -0.97565,0.95291 11.902458,7.1236162 0 0 0 -0.71468,1.03302 11.902458,7.1236162 0 0 0 -0.43615,1.08675 11.902458,7.1236162 0 0 0 -0.14676,1.11415 11.902458,7.1236162 0 0 0 0.14676,1.11466 11.902458,7.1236162 0 0 0 0.43615,1.08675 11.902458,7.1236162 0 0 0 0.34158,0.49403 h 21.95628 a 11.902458,7.1236162 0 0 0 0.34158,-0.49403 11.902458,7.1236162 0 0 0 0.43615,-1.08675 11.902458,7.1236162 0 0 0 0.14676,-1.11466 11.902458,7.1236162 0 0 0 -0.0176,-0.38551 11.902458,7.1236162 0 0 0 -0.0522,-0.38447 11.902458,7.1236162 0 0 0 -0.0873,-0.38241 11.902458,7.1236162 0 0 0 -0.12144,-0.37879 11.902458,7.1236162 0 0 0 -0.15554,-0.37414 11.902458,7.1236162 0 0 0 -0.18914,-0.36896 11.902458,7.1236162 0 0 0 -0.22221,-0.36226 11.902458,7.1236162 0 0 0 -0.25476,-0.3545 11.902458,7.1236162 0 0 0 -0.28629,-0.34571 11.902458,7.1236162 0 0 0 -0.31729,-0.3359 11.902458,7.1236162 0 0 0 -0.34727,-0.32504 11.902458,7.1236162 0 0 0 -0.3762,-0.31316 11.902458,7.1236162 0 0 0 -0.40359,-0.30076 11.902458,7.1236162 0 0 0 -0.43047,-0.28732 11.902458,7.1236162 0 0 0 -0.4563,-0.27234 11.902458,7.1236162 0 0 0 -0.47956,-0.25786 11.902458,7.1236162 0 0 0 -0.50229,-0.24185 11.902458,7.1236162 0 0 0 -0.52349,-0.22479 11.902458,7.1236162 0 0 0 -0.54312,-0.20774 11.902458,7.1236162 0 0 0 -0.5612,-0.19017 11.902458,7.1236162 0 0 0 -0.57774,-0.17156 11.902458,7.1236162 0 0 0 -0.59222,-0.15245 11.902458,7.1236162 0 0 0 -0.60513,-0.13281 11.902458,7.1236162 0 0 0 -0.61598,-0.11317 11.902458,7.1236162 0 0 0 -0.6258,-0.093 11.902458,7.1236162 0 0 0 -0.63304,-0.0729 11.902458,7.1236162 0 0 0 -0.63872,-0.0522 11.902458,7.1236162 0 0 0 -0.64234,-0.031 11.902458,7.1236162 0 0 0 -0.6444,-0.0109 z"
       style="opacity:1;fill:#ff2a2a;stroke-width:0.342937"
       id="path42" />
    <rect
       style="fill:#d2906d;fill-opacity:1;stroke:none;stroke-width:1;stroke-opacity:1"
       id="rect5"
       width="17.352398"
       height="41.463097"
       x="247.21532"
       y="94.734367"
       rx="0"
       ry="8.676199" />
    <path
       d="M 274.30139,137.45888 H 238.6679 c -0.0659,0.19092 -0.13383,0.38105 -0.19378,0.57465 -0.0915,0.29557 -0.17627,0.59444 -0.25374,0.89607 -0.0775,0.30162 -0.14773,0.60621 -0.21032,0.91364 -0.0626,0.30741 -0.11783,0.61734 -0.16536,0.93017 -0.0475,0.31283 -0.0873,0.62849 -0.11938,0.9462 -0.0312,0.3091 -0.0303,0.62706 -0.0465,0.94051 h 37.61165 c -0.0153,-0.31345 -0.0153,-0.63141 -0.0465,-0.94051 -0.032,-0.31771 -0.0724,-0.63337 -0.11988,-0.9462 -0.0475,-0.31283 -0.10228,-0.62276 -0.16485,-0.93017 -0.0626,-0.30743 -0.13285,-0.61202 -0.21033,-0.91364 -0.0775,-0.30163 -0.16218,-0.6005 -0.25373,-0.89607 -0.06,-0.1936 -0.12789,-0.38373 -0.19378,-0.57465 z"
       style="fill:#ffffff;stroke-width:2.19536"
       id="path18" />
    <path
       style="fill:#ff0000;fill-opacity:1;stroke:none;stroke-width:1.80721;stroke-opacity:1"
       d="m 275.1117,141.26901 c 0,0 -2.84147,13.92044 -1.48531,17.506 1.35616,3.58559 4.52052,-1.05456 3.74558,-4.42921 -0.77495,-3.37467 -2.26027,-13.07679 -2.26027,-13.07679 z"
       id="path19" />
    <rect
       style="mix-blend-mode:multiply;fill:#8fdeab;fill-opacity:1;stroke:none;stroke-width:1;stroke-opacity:1"
       id="rect24"
       width="27.38147"
       height="11.236735"
       x="226.55908"
       y="-85.84079"
       ry="5.6183677"
       transform="rotate(37.710957)" />
    <rect
       style="fill:#8fdeab;fill-opacity:1;stroke:none;stroke-width:1;stroke-opacity:1"
       id="rect19"
       width="27.38147"
       height="11.236735"
       x="226.27155"
       y="-86.542023"
       ry="5.6183677"
       transform="rotate(37.710957)" />
    <path
       d="m 272.42291,76.122594 -8.83512,6.831624 c -0.3078,0.237987 -0.58414,0.500798 -0.82838,0.783931 -0.24423,0.283134 -0.45628,0.586464 -0.63562,0.904338 -0.17933,0.317874 -0.32614,0.650495 -0.43925,0.992704 -0.11311,0.34221 -0.19267,0.693927 -0.23823,1.050065 -0.0456,0.356139 -0.0569,0.716758 -0.0336,1.07642 0.0233,0.359662 0.0816,0.718473 0.17518,1.071253 0.0936,0.352779 0.22247,0.699588 0.38757,1.035079 0.16511,0.335491 0.36611,0.659586 0.6041,0.967383 0.23799,0.307797 0.50131,0.58414 0.78445,0.828373 0.28313,0.244232 0.58594,0.456283 0.90382,0.63562 0.31787,0.179337 0.65049,0.326139 0.9927,0.43925 0.34221,0.11311 0.69445,0.192675 1.05058,0.238228 0.35614,0.04555 0.71625,0.05692 1.07591,0.03359 0.35966,-0.02334 0.71847,-0.08163 1.07125,-0.175183 0.35278,-0.09355 0.69959,-0.222468 1.03508,-0.387574 0.33549,-0.165105 0.6601,-0.366111 0.9679,-0.604097 l 12.77183,-9.875366 c 0.3078,-0.237987 0.58414,-0.501315 0.82837,-0.784449 0.24423,-0.283133 0.45628,-0.586463 0.63562,-0.904337 0.17934,-0.317875 0.32614,-0.650495 0.43925,-0.992704 0.0556,-0.168255 0.0779,-0.343987 0.11731,-0.516248 a 10.849261,10.849261 0 0 1 -1.25781,0.640788 10.849261,10.849261 0 0 1 -1.65519,0.397392 10.849261,10.849261 0 0 1 -1.69757,0.133841 10.849261,10.849261 0 0 1 -1.69706,-0.133841 10.849261,10.849261 0 0 1 -1.65519,-0.397392 10.849261,10.849261 0 0 1 -1.57303,-0.65164 10.849261,10.849261 0 0 1 -1.4516,-0.889351 10.849261,10.849261 0 0 1 -1.29449,-1.105359 10.849261,10.849261 0 0 1 -0.5488,-0.642338 z"
       style="mix-blend-mode:multiply;fill:#8fdeab"
       id="path24" />
    <path
       d="m 272.0576,75.647149 -8.83512,6.831624 c -0.3078,0.237987 -0.58414,0.500798 -0.82838,0.783931 -0.24423,0.283134 -0.45628,0.586464 -0.63562,0.904338 -0.17933,0.317874 -0.32614,0.650495 -0.43925,0.992704 -0.11311,0.34221 -0.19267,0.693927 -0.23823,1.050065 -0.0456,0.356139 -0.0569,0.716758 -0.0336,1.07642 0.0233,0.359662 0.0816,0.718473 0.17518,1.071253 0.0936,0.352779 0.22247,0.699588 0.38757,1.035079 0.16511,0.335491 0.36611,0.659586 0.6041,0.967383 0.23799,0.307797 0.50131,0.58414 0.78445,0.828373 0.28313,0.244232 0.58594,0.456283 0.90382,0.63562 0.31787,0.179337 0.65049,0.326139 0.9927,0.43925 0.34221,0.11311 0.69445,0.192675 1.05058,0.238228 0.35614,0.04555 0.71625,0.05692 1.07591,0.03359 0.35966,-0.02334 0.71847,-0.08163 1.07125,-0.175183 0.35278,-0.09355 0.69959,-0.222468 1.03508,-0.387574 0.33549,-0.165105 0.6601,-0.366111 0.9679,-0.604097 l 12.77183,-9.875366 c 0.3078,-0.237987 0.58414,-0.501315 0.82837,-0.784449 0.24423,-0.283133 0.45628,-0.586463 0.63562,-0.904337 0.17934,-0.317875 0.32614,-0.650495 0.43925,-0.992704 0.0556,-0.168255 0.0779,-0.343987 0.11731,-0.516248 a 10.849261,10.849261 0 0 1 -1.25781,0.640788 10.849261,10.849261 0 0 1 -1.65519,0.397392 10.849261,10.849261 0 0 1 -1.69757,0.133841 10.849261,10.849261 0 0 1 -1.69706,-0.133841 10.849261,10.849261 0 0 1 -1.65519,-0.397392 10.849261,10.849261 0 0 1 -1.57303,-0.65164 10.849261,10.849261 0 0 1 -1.4516,-0.889351 10.849261,10.849261 0 0 1 -1.29449,-1.105359 10.849261,10.849261 0 0 1 -0.5488,-0.642338 z"
       style="fill:#8fdeab"
       id="path21" />
    <circle
       style="opacity:0.372434;mix-blend-mode:multiply;fill:#d2906d;fill-opacity:1;stroke:none;stroke-width:1;stroke-opacity:1"
       id="path22"
       cx="259.22528"
       cy="124.67223"
       r="2.324842" />
    <circle
       style="opacity:0.372434;mix-blend-mode:multiply;fill:#d2906d;fill-opacity:1;stroke:none;stroke-width:0.715193;stroke-opacity:1"
       id="circle23"
       cx="254.55925"
       cy="130.37151"
       r="1.662711" />
    <circle
       style="opacity:0.372434;mix-blend-mode:multiply;fill:#d2906d;fill-opacity:1;stroke:none;stroke-width:0.459849;stroke-opacity:1"
       id="circle24"
       cx="260.77475"
       cy="129.26907"
       r="1.0690763" />
    <path
       d="m 300.60676,95.455242 a 49.043358,49.043358 0 0 1 0.18913,1.485181 49.043358,49.043358 0 0 1 0.18811,2.477368 49.043358,49.043358 0 0 1 0.063,2.483569 49.043358,49.043358 0 0 1 0,0.17105 49.043358,49.043358 0 0 1 -0.001,0.17105 49.043358,49.043358 0 0 1 -0.002,0.17053 49.043358,49.043358 0 0 1 -0.002,0.17105 49.043358,49.043358 0 0 1 -0.003,0.17053 49.043358,49.043358 0 0 1 -0.003,0.17105 49.043358,49.043358 0 0 1 -0.004,0.17053 49.043358,49.043358 0 0 1 -0.005,0.17105 49.043358,49.043358 0 0 1 -0.005,0.17053 49.043358,49.043358 0 0 1 -0.006,0.17054 49.043358,49.043358 0 0 1 -0.006,0.17104 49.043358,49.043358 0 0 1 -0.007,0.17054 49.043358,49.043358 0 0 1 -0.007,0.17053 49.043358,49.043358 0 0 1 -0.008,0.17053 49.043358,49.043358 0 0 1 -0.009,0.17105 49.043358,49.043358 0 0 1 -0.009,0.17053 49.043358,49.043358 0 0 1 -0.01,0.17053 49.043358,49.043358 0 0 1 -0.0103,0.17053 49.043358,49.043358 0 0 1 -0.0109,0.17053 49.043358,49.043358 0 0 1 -0.0119,0.17002 49.043358,49.043358 0 0 1 -0.0119,0.17053 49.043358,49.043358 0 0 1 -0.0129,0.17053 49.043358,49.043358 0 0 1 -0.0134,0.17002 49.043358,49.043358 0 0 1 -0.014,0.17053 49.043358,49.043358 0 0 1 -0.0145,0.17002 49.043358,49.043358 0 0 1 -0.015,0.17001 49.043358,49.043358 0 0 1 -0.016,0.17002 49.043358,49.043358 0 0 1 -0.016,0.17053 49.043358,49.043358 0 0 1 -0.0171,0.1695 49.043358,49.043358 0 0 1 -0.0176,0.17002 49.043358,49.043358 0 0 1 -0.0181,0.17001 49.043358,49.043358 0 0 1 -0.0186,0.17002 49.043358,49.043358 0 0 1 -0.0196,0.16949 49.043358,49.043358 0 0 1 -0.0196,0.1695 49.043358,49.043358 0 0 1 -0.0207,0.1695 49.043358,49.043358 0 0 1 -0.0207,0.17002 49.043358,49.043358 0 0 1 -0.0217,0.16898 49.043358,49.043358 0 0 1 -0.0222,0.1695 49.043358,49.043358 0 0 1 -0.0233,0.1695 49.043358,49.043358 0 0 1 -0.0233,0.16898 49.043358,49.043358 0 0 1 -0.0238,0.1695 49.043358,49.043358 0 0 1 -1.48776,6.83731 49.043358,49.043358 0 0 1 -2.44533,6.5562 49.043358,49.043358 0 0 1 -3.35328,6.14122 49.043358,49.043358 0 0 1 -4.19355,5.60173 49.043358,49.043358 0 0 1 -4.94801,4.94802 49.043358,49.043358 0 0 1 -5.60173,4.19354 49.043358,49.043358 0 0 1 -6.14123,3.35328 49.043358,49.043358 0 0 1 -6.5567,2.44533 49.043358,49.043358 0 0 1 -6.83731,1.48777 49.043358,49.043358 0 0 1 -6.97994,0.49867 49.043358,49.043358 0 0 1 -6.97942,-0.49867 49.043358,49.043358 0 0 1 -6.83731,-1.48777 49.043358,49.043358 0 0 1 -6.5567,-2.44533 49.043358,49.043358 0 0 1 -5.90714,-3.22564 46.577492,46.577492 0 0 0 4.76664,3.56826 46.577492,46.577492 0 0 0 5.8322,3.18482 46.577492,46.577492 0 0 0 6.22701,2.32233 46.577492,46.577492 0 0 0 6.49366,1.41284 46.577492,46.577492 0 0 0 6.62854,0.47387 46.577492,46.577492 0 0 0 6.62854,-0.47387 46.577492,46.577492 0 0 0 6.49366,-1.41284 46.577492,46.577492 0 0 0 6.22701,-2.32233 46.577492,46.577492 0 0 0 5.83271,-3.18482 46.577492,46.577492 0 0 0 5.32009,-3.98271 46.577492,46.577492 0 0 0 4.69894,-4.69893 46.577492,46.577492 0 0 0 3.9827,-5.32009 46.577492,46.577492 0 0 0 3.18482,-5.83272 46.577492,46.577492 0 0 0 2.32234,-6.2265 46.577492,46.577492 0 0 0 1.41283,-6.49367 46.577492,46.577492 0 0 0 0.0233,-0.16484 46.577492,46.577492 0 0 0 0.0227,-0.16433 46.577492,46.577492 0 0 0 0.0222,-0.16485 46.577492,46.577492 0 0 0 0.0217,-0.16485 46.577492,46.577492 0 0 0 0.0212,-0.16536 46.577492,46.577492 0 0 0 0.0202,-0.16485 46.577492,46.577492 0 0 0 0.0202,-0.16485 46.577492,46.577492 0 0 0 0.0191,-0.16536 46.577492,46.577492 0 0 0 0.0186,-0.16537 46.577492,46.577492 0 0 0 0.0181,-0.16536 46.577492,46.577492 0 0 0 0.0176,-0.16537 46.577492,46.577492 0 0 0 0.0165,-0.16536 46.577492,46.577492 0 0 0 0.0165,-0.16537 46.577492,46.577492 0 0 0 0.0155,-0.16536 46.577492,46.577492 0 0 0 0.0155,-0.16588 46.577492,46.577492 0 0 0 0.0145,-0.16537 46.577492,46.577492 0 0 0 0.0139,-0.16588 46.577492,46.577492 0 0 0 0.0129,-0.16588 46.577492,46.577492 0 0 0 0.0129,-0.16588 46.577492,46.577492 0 0 0 0.0124,-0.16588 46.577492,46.577492 0 0 0 0.0114,-0.16588 46.577492,46.577492 0 0 0 0.0109,-0.16589 46.577492,46.577492 0 0 0 0.0103,-0.16588 46.577492,46.577492 0 0 0 0.01,-0.16588 46.577492,46.577492 0 0 0 0.009,-0.16588 46.577492,46.577492 0 0 0 0.009,-0.1664 46.577492,46.577492 0 0 0 0.008,-0.16588 46.577492,46.577492 0 0 0 0.007,-0.1664 46.577492,46.577492 0 0 0 0.007,-0.16588 46.577492,46.577492 0 0 0 0.006,-0.1664 46.577492,46.577492 0 0 0 0.006,-0.16588 46.577492,46.577492 0 0 0 0.005,-0.1664 46.577492,46.577492 0 0 0 0.005,-0.16639 46.577492,46.577492 0 0 0 0.004,-0.16589 46.577492,46.577492 0 0 0 0.004,-0.16639 46.577492,46.577492 0 0 0 0.003,-0.1664 46.577492,46.577492 0 0 0 0.002,-0.1664 46.577492,46.577492 0 0 0 0.002,-0.16588 46.577492,46.577492 0 0 0 5.2e-4,-0.1664 46.577492,46.577492 0 0 0 5.2e-4,-0.1664 46.577492,46.577492 0 0 0 -0.0599,-2.35903 46.577492,46.577492 0 0 0 -0.1788,-2.35282 46.577492,46.577492 0 0 0 -0.29817,-2.34094 46.577492,46.577492 0 0 0 -0.41651,-2.322858 46.577492,46.577492 0 0 0 -0.5333,-2.299084 46.577492,46.577492 0 0 0 -0.15503,-0.542086 z"
       style="mix-blend-mode:multiply;fill:#8fdeab"
       id="path28" />
    <path
       d="m 259.4687,61.264047 a 8.9757123,8.9757123 0 0 0 0.94568,0.945679 8.5244198,8.5244198 0 0 1 0.13539,-0.854728 46.577492,46.577492 0 0 0 -0.1664,-0.02119 46.577492,46.577492 0 0 0 -0.91467,-0.06976 z"
       style="mix-blend-mode:multiply;fill:#8fdeab"
       id="path27" />
    <path
       d="m 265.6182,160.27145 c -0.005,0.0146 -0.009,0.0299 -0.014,0.0444 -0.13058,0.35617 -0.27813,0.70545 -0.44183,1.04645 -0.16371,0.34099 -0.34359,0.67389 -0.53899,0.99735 -0.1954,0.32346 -0.40633,0.63746 -0.632,0.94103 -0.22567,0.30356 -0.46586,0.59667 -0.72037,0.87798 -0.25451,0.28131 -0.52319,0.5505 -0.80512,0.80719 -0.28192,0.25668 -0.57731,0.50049 -0.88521,0.73018 -0.30791,0.2297 -0.6282,0.44561 -0.96067,0.64596 -0.33247,0.20035 -0.6769,0.38533 -1.03249,0.55397 -0.3556,0.16864 -0.72238,0.32071 -1.09968,0.45527 -0.3773,0.13457 -0.76514,0.25172 -1.16272,0.34985 l -8.68939,2.14457 c -0.39758,0.0981 -0.79507,0.17507 -1.19166,0.23151 -0.1587,0.0226 -0.31611,0.0273 -0.47439,0.0434 0.0453,0.12079 0.0829,0.2454 0.13281,0.3638 0.12157,0.28838 0.25664,0.56924 0.40463,0.84233 0.14798,0.27309 0.30881,0.53805 0.48162,0.79427 0.17281,0.25621 0.35792,0.5038 0.55397,0.74155 0.19605,0.23775 0.40294,0.46599 0.62064,0.68368 0.21769,0.2177 0.44593,0.42459 0.68368,0.62064 0.23774,0.19604 0.48534,0.38116 0.74155,0.55397 0.25622,0.17281 0.52118,0.33364 0.79427,0.48162 0.27309,0.14799 0.55395,0.28306 0.84232,0.40463 0.28838,0.12157 0.58418,0.22941 0.88626,0.32298 0.30207,0.0936 0.61083,0.17271 0.925,0.23667 0.31418,0.064 0.63391,0.11295 0.9586,0.14573 0.32469,0.0328 0.65392,0.0496 0.98754,0.0496 0.33361,0 0.66336,-0.0168 0.98805,-0.0496 0.32469,-0.0328 0.64442,-0.0818 0.9586,-0.14573 0.31418,-0.064 0.62294,-0.14311 0.92501,-0.23667 0.30207,-0.0936 0.59735,-0.20141 0.88573,-0.32298 0.28838,-0.12157 0.56975,-0.25664 0.84284,-0.40463 0.2731,-0.14798 0.53806,-0.30881 0.79427,-0.48162 0.25622,-0.17281 0.50381,-0.35793 0.74156,-0.55397 0.23775,-0.19605 0.46598,-0.40294 0.68368,-0.62064 0.21769,-0.21769 0.42458,-0.44593 0.62063,-0.68368 0.19605,-0.23775 0.38116,-0.48534 0.55397,-0.74155 0.17281,-0.25622 0.33364,-0.52118 0.48163,-0.79427 0.14798,-0.27309 0.28305,-0.55395 0.40462,-0.84233 0.12157,-0.28837 0.22942,-0.58418 0.32298,-0.88625 0.0936,-0.30207 0.17271,-0.61083 0.23668,-0.92501 0.064,-0.31417 0.11295,-0.6339 0.14573,-0.95859 0.0328,-0.3247 0.0496,-0.65392 0.0496,-0.98754 z"
       style="opacity:1;mix-blend-mode:multiply;fill:#8fdeab;stroke-width:1.81896"
       id="path31" />
    <path
       d="m 282.4016,109.80346 h -12.35646 c 0.0156,0.11114 0.0261,0.22402 0.0464,0.33332 0.0416,0.22217 0.0925,0.44062 0.15331,0.65422 0.0607,0.21362 0.13084,0.42292 0.20981,0.62684 0.0789,0.20393 0.16733,0.40271 0.26344,0.59583 0.0961,0.19311 0.20008,0.38054 0.31232,0.56172 0.11226,0.18118 0.23247,0.35587 0.35981,0.524 0.12734,0.16812 0.26206,0.32974 0.40346,0.48369 0.1414,0.15393 0.28937,0.30009 0.4438,0.43873 0.15443,0.13864 0.31538,0.26952 0.4818,0.39171 0.16642,0.1222 0.33856,0.2359 0.51596,0.34055 0.17737,0.10465 0.35997,0.20032 0.54728,0.28628 0.18731,0.0859 0.37956,0.16225 0.57576,0.22841 0.19621,0.0661 0.39639,0.12222 0.60046,0.16744 0.20407,0.0452 0.41186,0.0797 0.62276,0.10283 0.2109,0.0232 0.42457,0.0346 0.64127,0.0346 0.21669,0 0.43086,-0.0114 0.64175,-0.0346 0.2109,-0.0232 0.41869,-0.0576 0.62275,-0.10283 0.20407,-0.0452 0.40472,-0.10127 0.60093,-0.16744 0.1962,-0.0661 0.38799,-0.14243 0.5753,-0.22841 0.1873,-0.0859 0.36991,-0.18165 0.54728,-0.28628 0.17738,-0.10465 0.35002,-0.21835 0.51644,-0.34055 0.16642,-0.12219 0.32687,-0.25307 0.4813,-0.39171 0.15443,-0.13864 0.3029,-0.2848 0.44429,-0.43873 0.14139,-0.15395 0.27565,-0.31557 0.403,-0.48369 0.12734,-0.16813 0.24707,-0.34282 0.35931,-0.524 0.11226,-0.18118 0.21669,-0.36861 0.31281,-0.56172 0.0961,-0.19312 0.18446,-0.3919 0.26344,-0.59583 0.0789,-0.20392 0.14854,-0.41322 0.20933,-0.62684 0.0607,-0.2136 0.11273,-0.43205 0.15426,-0.65422 0.0204,-0.10931 0.0309,-0.22217 0.0464,-0.33332 z"
       style="mix-blend-mode:multiply;fill:#8fdeab;fill-opacity:1;stroke-width:0.752633"
       id="path47" />
    <path
       d="m 243.58702,109.80346 h -12.35646 c 0.0156,0.11114 0.0261,0.22402 0.0464,0.33332 0.0416,0.22217 0.0925,0.44062 0.15331,0.65422 0.0607,0.21362 0.13084,0.42292 0.20981,0.62684 0.0789,0.20393 0.16733,0.40271 0.26344,0.59583 0.0961,0.19311 0.20008,0.38054 0.31232,0.56172 0.11226,0.18118 0.23247,0.35587 0.35981,0.524 0.12734,0.16812 0.26206,0.32974 0.40346,0.48369 0.1414,0.15393 0.28937,0.30009 0.4438,0.43873 0.15443,0.13864 0.31538,0.26952 0.4818,0.39171 0.16642,0.1222 0.33856,0.2359 0.51596,0.34055 0.17737,0.10465 0.35997,0.20032 0.54728,0.28628 0.18731,0.0859 0.37956,0.16225 0.57576,0.22841 0.19621,0.0661 0.39639,0.12222 0.60046,0.16744 0.20407,0.0452 0.41186,0.0797 0.62276,0.10283 0.2109,0.0232 0.42457,0.0346 0.64127,0.0346 0.21669,0 0.43086,-0.0114 0.64175,-0.0346 0.2109,-0.0232 0.41869,-0.0576 0.62275,-0.10283 0.20407,-0.0452 0.40472,-0.10127 0.60093,-0.16744 0.1962,-0.0661 0.38799,-0.14243 0.5753,-0.22841 0.1873,-0.0859 0.36991,-0.18165 0.54728,-0.28628 0.17738,-0.10465 0.35002,-0.21835 0.51644,-0.34055 0.16642,-0.12219 0.32687,-0.25307 0.4813,-0.39171 0.15443,-0.13864 0.3029,-0.2848 0.44429,-0.43873 0.14139,-0.15395 0.27565,-0.31557 0.403,-0.48369 0.12734,-0.16813 0.24707,-0.34282 0.35931,-0.524 0.11226,-0.18118 0.21669,-0.36861 0.31281,-0.56172 0.0961,-0.19312 0.18446,-0.3919 0.26344,-0.59583 0.0789,-0.20392 0.14854,-0.41322 0.20933,-0.62684 0.0607,-0.2136 0.11273,-0.43205 0.15426,-0.65422 0.0204,-0.10931 0.0309,-0.22217 0.0464,-0.33332 z"
       style="mix-blend-mode:multiply;fill:#8fdeab;fill-opacity:1;stroke-width:0.752633"
       id="path48" />
    <path
       d="m 255.671,61.095065 a 46.577492,46.577492 0 0 0 -6.62854,0.473873 46.577492,46.577492 0 0 0 -6.49366,1.412834 46.577492,46.577492 0 0 0 -6.22701,2.322339 46.577492,46.577492 0 0 0 -5.8322,3.184818 46.577492,46.577492 0 0 0 -5.32009,3.982703 46.577492,46.577492 0 0 0 -4.69946,4.698938 46.577492,46.577492 0 0 0 -3.9827,5.320089 46.577492,46.577492 0 0 0 -3.18482,5.832718 46.577492,46.577492 0 0 0 -2.32234,6.226494 46.577492,46.577492 0 0 0 -1.41231,6.493659 46.577492,46.577492 0 0 0 -0.47439,6.62853 46.577492,46.577492 0 0 0 0.47439,6.62905 46.577492,46.577492 0 0 0 1.41231,6.49367 46.577492,46.577492 0 0 0 2.32234,6.2265 46.577492,46.577492 0 0 0 3.18482,5.83272 46.577492,46.577492 0 0 0 1.96215,2.62154 50.04797,48.586727 0 0 1 -2.64169,-4.69687 50.04797,48.586727 0 0 1 -2.49494,-6.49521 50.04797,48.586727 0 0 1 -1.51774,-6.77376 50.04797,48.586727 0 0 1 -0.50953,-6.91534 50.04797,48.586727 0 0 1 0.50953,-6.9143 50.04797,48.586727 0 0 1 1.51774,-6.773744 50.04797,48.586727 0 0 1 2.49494,-6.495211 50.04797,48.586727 0 0 1 3.42253,-6.084383 50.04797,48.586727 0 0 1 4.27932,-5.549532 50.04797,48.586727 0 0 1 5.04931,-4.90151 50.04797,48.586727 0 0 1 5.71696,-4.154268 50.04797,48.586727 0 0 1 6.26629,-3.322278 50.04797,48.586727 0 0 1 6.69106,-2.422591 50.04797,48.586727 0 0 1 6.97787,-1.473812 50.04797,48.586727 0 0 1 6.22494,-0.432015 8.5244198,8.5244198 0 0 1 0.11369,-0.715718 46.577492,46.577492 0 0 0 -0.1664,-0.02119 46.577492,46.577492 0 0 0 -2.35334,-0.179317 46.577492,46.577492 0 0 0 -2.35903,-0.05943 z"
       style="opacity:0.462121;mix-blend-mode:screen;fill:#8fdeab"
       id="path53" />
    <path
       d="m 277.17098,32.082883 a 26.850554,26.850554 0 0 0 -4.89996,0.451135 26.850554,26.850554 0 0 0 -4.73511,1.337903 26.850554,26.850554 0 0 0 -4.41214,2.179195 26.850554,26.850554 0 0 0 -3.93981,2.94814 26.850554,26.850554 0 0 0 -3.33571,3.617351 26.850554,26.850554 0 0 0 -2.61948,4.165637 26.850554,26.850554 0 0 0 -1.81539,4.573364 26.850554,26.850554 0 0 0 -3.36569,-1.160653 26.850554,26.850554 0 0 0 -3.49022,-0.704866 26.850554,26.850554 0 0 0 -3.55224,-0.237195 26.850554,26.850554 0 0 0 -4.66277,0.407727 26.850554,26.850554 0 0 0 -4.52065,1.211812 26.850554,26.850554 0 0 0 -4.24212,1.977657 26.850554,26.850554 0 0 0 -3.83388,2.684591 26.850554,26.850554 0 0 0 -3.30936,3.309359 26.850554,26.850554 0 0 0 -2.68459,3.834391 26.850554,26.850554 0 0 0 -1.97765,4.241602 26.850554,26.850554 0 0 0 -1.21182,4.520654 26.850554,26.850554 0 0 0 -0.40772,4.662764 26.850554,26.850554 0 0 0 0.14521,1.659331 27.341724,26.850554 0 0 1 0.27027,-3.033924 27.341724,26.850554 0 0 1 1.23351,-4.521171 27.341724,26.850554 0 0 1 2.01435,-4.241601 27.341724,26.850554 0 0 1 2.73317,-3.833875 27.341724,26.850554 0 0 1 3.37033,-3.309875 27.341724,26.850554 0 0 1 3.90416,-2.684074 27.341724,26.850554 0 0 1 4.31911,-1.978174 27.341724,26.850554 0 0 1 4.60386,-1.211296 27.341724,26.850554 0 0 1 4.74751,-0.408243 27.341724,26.850554 0 0 1 3.61787,0.237194 27.341724,26.850554 0 0 1 3.55327,0.704867 27.341724,26.850554 0 0 1 3.4277,1.160653 27.341724,26.850554 0 0 1 1.84847,-4.573365 27.341724,26.850554 0 0 1 2.66753,-4.165637 27.341724,26.850554 0 0 1 3.3967,-3.61735 27.341724,26.850554 0 0 1 4.01215,-2.947624 27.341724,26.850554 0 0 1 4.49224,-2.179712 27.341724,26.850554 0 0 1 4.82192,-1.337902 27.341724,26.850554 0 0 1 4.98988,-0.451136 27.341724,26.850554 0 0 1 1.65055,0.04909 27.341724,26.850554 0 0 1 1.64486,0.146761 27.341724,26.850554 0 0 1 1.63297,0.243913 27.341724,26.850554 0 0 1 1.61489,0.340547 27.341724,26.850554 0 0 1 1.5906,0.435633 27.341724,26.850554 0 0 1 1.56166,0.529166 27.341724,26.850554 0 0 1 1.52549,0.620634 27.341724,26.850554 0 0 1 1.48518,0.710035 27.341724,26.850554 0 0 1 1.43867,0.79685 27.341724,26.850554 0 0 1 1.387,0.880567 27.341724,26.850554 0 0 1 1.33015,0.961181 27.341724,26.850554 0 0 1 1.26866,1.03818 27.341724,26.850554 0 0 1 1.20251,1.112076 27.341724,26.850554 0 0 1 1.13223,1.180807 27.341724,26.850554 0 0 1 1.0573,1.245919 27.341724,26.850554 0 0 1 0.97875,1.30638 27.341724,26.850554 0 0 1 0.8971,1.362191 27.341724,26.850554 0 0 1 0.38189,0.664559 26.850554,26.850554 0 0 0 -0.44855,-1.081588 26.850554,26.850554 0 0 0 -0.71004,-1.458309 26.850554,26.850554 0 0 0 -0.79633,-1.412317 26.850554,26.850554 0 0 0 -0.88108,-1.362191 26.850554,26.850554 0 0 0 -0.96118,-1.30638 26.850554,26.850554 0 0 0 -1.03818,-1.245919 26.850554,26.850554 0 0 0 -1.11156,-1.181323 26.850554,26.850554 0 0 0 -1.18133,-1.11156 26.850554,26.850554 0 0 0 -1.24592,-1.038179 26.850554,26.850554 0 0 0 -1.30638,-0.961182 26.850554,26.850554 0 0 0 -1.36219,-0.881083 26.850554,26.850554 0 0 0 -1.41231,-0.796334 26.850554,26.850554 0 0 0 -1.45831,-0.710034 26.850554,26.850554 0 0 0 -1.49862,-0.621151 26.850554,26.850554 0 0 0 -1.53324,-0.52865 26.850554,26.850554 0 0 0 -1.56218,-0.435632 26.850554,26.850554 0 0 0 -1.58595,-0.340548 26.850554,26.850554 0 0 0 -1.60352,-0.243913 26.850554,26.850554 0 0 0 -1.6154,-0.146761 26.850554,26.850554 0 0 0 -1.62109,-0.04909 z"
       style="opacity:1;mix-blend-mode:screen;fill:#ff2a2a"
       id="path56" />
    <path
       d="m 257.05386,136.11168 c -0.22493,-0.029 -0.45024,-0.0571 -0.66973,-0.1018 -0.30229,-0.0616 -0.59922,-0.13787 -0.88986,-0.2279 -0.29065,-0.09 -0.57519,-0.1936 -0.85267,-0.31057 -0.27747,-0.11697 -0.54803,-0.24725 -0.8108,-0.38964 -0.26276,-0.14239 -0.51777,-0.29726 -0.76429,-0.46354 -0.24653,-0.16628 -0.48438,-0.34415 -0.71314,-0.53278 -0.22876,-0.18864 -0.44838,-0.38792 -0.65784,-0.59738 -0.20946,-0.20946 -0.40874,-0.42908 -0.59738,-0.65784 -0.18863,-0.22876 -0.36651,-0.46661 -0.53278,-0.71314 -0.16628,-0.24652 -0.32115,-0.50153 -0.46354,-0.76429 -0.14239,-0.26277 -0.27267,-0.53333 -0.38964,-0.81081 -0.11697,-0.27747 -0.22055,-0.56201 -0.31058,-0.85266 -0.09,-0.29065 -0.16634,-0.58757 -0.22789,-0.88987 -0.0615,-0.30229 -0.1085,-0.61001 -0.14004,-0.92242 -0.0315,-0.31241 -0.0475,-0.62933 -0.0475,-0.95033 v -25.76329 c 0,-0.321 0.016,-0.63792 0.0475,-0.95033 0.0315,-0.312412 0.0785,-0.620127 0.14004,-0.922423 0.0615,-0.302296 0.13787,-0.59922 0.22789,-0.889869 0.09,-0.290648 0.19361,-0.575189 0.31058,-0.852661 0.0622,-0.14758 0.13772,-0.28746 0.20722,-0.430981 -0.055,0.05222 -0.11482,0.09932 -0.16846,0.152962 -0.19603,0.196028 -0.38261,0.401379 -0.55914,0.615466 -0.17654,0.214088 -0.34307,0.436944 -0.49868,0.66766 -0.15561,0.230715 -0.30031,0.46929 -0.43356,0.715202 -0.13326,0.245911 -0.25485,0.498934 -0.36432,0.758614 -0.10947,0.25967 -0.20669,0.52587 -0.29094,0.79788 -0.0842,0.27201 -0.15583,0.55012 -0.21343,0.83302 -0.0576,0.28291 -0.10122,0.57062 -0.13074,0.863 -0.0295,0.29238 -0.045,0.58894 -0.045,0.88935 v 24.1112 c 0,0.30041 0.0155,0.59697 0.045,0.88935 0.0295,0.29237 0.0731,0.58009 0.13074,0.86299 0.0576,0.28291 0.12918,0.56102 0.21343,0.83303 0.0842,0.27201 0.18147,0.53821 0.29094,0.79788 0.10947,0.25968 0.23106,0.5127 0.36432,0.75861 0.13325,0.24591 0.27795,0.48449 0.43356,0.7152 0.15561,0.23072 0.32214,0.45358 0.49868,0.66766 0.17653,0.21409 0.36311,0.41944 0.55914,0.61547 0.19602,0.19603 0.40138,0.3826 0.61546,0.55914 0.21409,0.17654 0.43695,0.34306 0.66766,0.49868 0.23072,0.15561 0.46929,0.30031 0.7152,0.43356 0.24592,0.13326 0.49894,0.25537 0.75861,0.36484 0.25968,0.10947 0.52588,0.20669 0.79789,0.29094 0.27201,0.0842 0.55011,0.1553 0.83302,0.2129 0.28291,0.0576 0.57062,0.10175 0.863,0.13126 0.29238,0.0295 0.58945,0.0444 0.88987,0.0444 0.30041,0 0.59697,-0.0149 0.88935,-0.0444 0.0924,-0.009 0.18137,-0.0292 0.27285,-0.0413 z"
       style="mix-blend-mode:screen;fill:#d2906d"
       id="path58" />
    <path
       d="m 249.83673,91.519048 c -0.0876,0.05607 -0.17347,0.11558 -0.26355,0.166398 -0.15894,0.08967 -0.32164,0.171235 -0.48731,0.24443 -0.16567,0.07319 -0.33429,0.138264 -0.50539,0.19482 -0.17111,0.05656 -0.34463,0.104428 -0.51987,0.144177 -0.17524,0.03975 -0.35213,0.07127 -0.5302,0.09405 -0.17807,0.02278 -0.35732,0.03725 -0.53692,0.04289 -0.1796,0.0056 -0.35967,0.0024 -0.5395,-0.0093 -0.17983,-0.01167 -0.35919,-0.03184 -0.53795,-0.06098 -0.17876,-0.02914 -0.35691,-0.06691 -0.5333,-0.113689 -0.17639,-0.04678 -0.35128,-0.102849 -0.524,-0.167431 -0.17272,-0.06458 -0.34282,-0.138106 -0.51056,-0.220659 -0.16775,-0.08255 -0.33308,-0.173712 -0.49455,-0.274401 -0.16147,-0.10069 -0.31946,-0.210703 -0.47335,-0.329696 l -12.77235,-9.875363 c -0.1539,-0.118994 -0.29961,-0.244241 -0.4377,-0.375171 -0.13809,-0.130931 -0.26856,-0.267711 -0.39068,-0.409277 -0.12211,-0.141567 -0.23612,-0.287831 -0.3421,-0.438733 -0.10597,-0.150903 -0.20385,-0.306151 -0.29352,-0.465088 -0.0897,-0.158937 -0.17072,-0.321638 -0.24391,-0.487309 -0.0732,-0.165671 -0.13827,-0.334291 -0.19482,-0.505396 -0.0566,-0.171104 -0.10495,-0.344627 -0.14469,-0.519864 -0.0397,-0.175238 -0.0708,-0.352131 -0.0935,-0.530201 -0.0228,-0.178069 -0.0373,-0.357317 -0.0429,-0.536918 -0.006,-0.1796 -0.003,-0.359671 0.009,-0.539502 0.0117,-0.179831 0.0324,-0.359707 0.0615,-0.538468 0.0291,-0.178761 0.0669,-0.356394 0.11368,-0.532784 0.0468,-0.17639 0.10234,-0.351281 0.16692,-0.523999 0.0646,-0.172718 0.1381,-0.343334 0.22066,-0.51108 0.0825,-0.167746 0.17423,-0.332554 0.27492,-0.494027 0.10069,-0.161472 0.2107,-0.319457 0.32969,-0.473356 0.10464,-0.135327 0.21577,-0.262395 0.3297,-0.385506 -0.0674,0.0431 -0.1368,0.08197 -0.20257,0.128157 -0.15091,0.105976 -0.29717,0.219982 -0.43874,0.342098 -0.14156,0.122117 -0.27834,0.252067 -0.40927,0.390157 -0.13094,0.138091 -0.25618,0.284318 -0.37518,0.438217 -0.11899,0.153898 -0.229,0.311883 -0.32969,0.473356 -0.10069,0.161472 -0.19185,0.326281 -0.2744,0.494026 -0.0825,0.167746 -0.15608,0.338362 -0.22066,0.51108 -0.0646,0.172718 -0.12066,0.34761 -0.16743,0.523999 -0.0468,0.17639 -0.0846,0.35454 -0.11369,0.533301 -0.0291,0.178761 -0.0493,0.358121 -0.061,0.537952 -0.0117,0.179831 -0.0149,0.359901 -0.009,0.539502 0.006,0.1796 0.0201,0.358849 0.0429,0.536918 0.0228,0.178069 0.0538,0.354963 0.0935,0.5302 0.0397,0.175238 0.0881,0.34876 0.14469,0.519865 0.0566,0.171105 0.12163,0.339724 0.19482,0.505396 0.0732,0.165671 0.15476,0.328371 0.24443,0.487308 0.0897,0.158937 0.18755,0.314186 0.29352,0.465088 0.10598,0.150902 0.21999,0.297683 0.3421,0.43925 0.12212,0.141567 0.25207,0.27783 0.39016,0.40876 0.13809,0.130931 0.28432,0.256178 0.43822,0.375171 l 12.77183,9.875367 c 0.1539,0.118993 0.31188,0.229005 0.47336,0.329695 0.16147,0.10069 0.32679,0.192366 0.49454,0.274919 0.16774,0.08255 0.33836,0.156076 0.51108,0.220658 0.17272,0.06458 0.34761,0.120138 0.524,0.166915 0.17639,0.04678 0.35402,0.08455 0.53278,0.113688 0.17876,0.02914 0.35864,0.04931 0.53847,0.06098 0.17983,0.01167 0.3599,0.01494 0.5395,0.0093 0.1796,-0.0056 0.35833,-0.02012 0.5364,-0.04289 0.17807,-0.02278 0.35548,-0.05379 0.53072,-0.09354 0.17524,-0.03975 0.34876,-0.08814 0.51987,-0.144694 0.1711,-0.05656 0.33972,-0.121625 0.50539,-0.19482 0.16567,-0.07319 0.32837,-0.154244 0.48731,-0.243913 0.15894,-0.08967 0.31419,-0.187546 0.46509,-0.293522 0.1509,-0.105975 0.29716,-0.220498 0.43873,-0.342614 0.14157,-0.122117 0.27835,-0.252067 0.40928,-0.390158 0.0161,-0.01693 0.0301,-0.03657 0.046,-0.05374 z"
       style="mix-blend-mode:screen;fill:#8fdeab"
       id="path59" />
    <path
       style="opacity:1;fill:#008000;stroke-width:1"
       d="m -48.631574,77.011441 -35.07011,-29.22509 5.4797,-30.68635 -43.837636,-9.8634705 26.667896,14.9778605 -13.881916,28.12915 43.837636,62.468629 z"
       id="path12" />
    <path
       style="opacity:1;fill:#008000;stroke-width:1"
       d="M -32.92309,77.011441 2.1470196,47.786351 -3.3326904,17.100001 40.50495,7.2365305 13.83705,22.214391 27.71897,50.343541 -16.11867,112.81217 Z"
       id="path25" />
    <path
       style="opacity:1;fill:#008000;stroke-width:1"
       d="m -48.882734,356.48389 c 28.48662,-4.89287 48.73369999,-36.38217 63.92989,-81.09963 -6.09293,37.99262 -1.89537,75.98524 -48.58672,113.97786 z"
       id="path13"
       sodipodi:nodetypes="cccc" />
    <path
       style="opacity:1;fill:#b8ffb8;fill-opacity:1;stroke-width:1"
       d="m -46.936554,75.623071 -6.45789,0.64579 2.06652,3.87474 -7.62031,-0.25832 4.00389,4.64969 -5.03716,1.80821 5.29548,4.77884 -2.32484,-0.12916 1.42073,2.58316 -6.58705,-0.38748 2.32484,5.81211 -1.93737,1.549889 1.42074,2.19569 -5.16631,0.64579 2.58315,2.32484 -4.77884,-1.67906 1.5499,4.52053 -2.84148,0.90411 2.06653,5.16631 6.32874,-2.71231 9.29936,-18.857049 z"
       id="path17" />
    <path
       style="opacity:1;fill:#b8ffb8;fill-opacity:1;stroke-width:1"
       d="m -35.95814,75.752231 c 0,0 7.62032,1.42074 6.4579,1.67906 -1.16242,0.25831 -3.09979,0.77494 -2.19569,1.16241 0.90411,0.38748 5.03716,1.42074 5.03716,1.42074 l -2.32484,3.3581 5.8121,0.51664 -4.39136,6.07042 2.84147,-0.25832 -1.03326,2.58316 3.48726,0.38747 -2.19568,5.42463 3.87473,-0.51663 0.51663,2.583159 3.35811,1.03326 -5.29548,3.09979 3.87474,-0.64579 0.38747,2.84147 h 3.48727 l -3.48727,5.16632 -5.42463,-2.454 z"
       id="path20" />
    <ellipse
       style="opacity:1;fill:#f2f2fe;fill-opacity:1;stroke-width:1"
       id="path23"
       cx="-47.535645"
       cy="104.59263"
       rx="8.4022141"
       ry="12.420665" />
    <ellipse
       style="opacity:1;fill:#f2f2fe;fill-opacity:1;stroke-width:1"
       id="ellipse23"
       cx="-34.567009"
       cy="104.59263"
       rx="8.4022141"
       ry="12.420665" />
    <ellipse
       style="opacity:1;fill:#1a1a1a;fill-opacity:1;stroke-width:0.5"
       id="path26"
       cx="-44.738472"
       cy="108.36669"
       rx="1.4612546"
       ry="2.3288746" />
    <ellipse
       style="opacity:1;fill:#1a1a1a;fill-opacity:1;stroke-width:1"
       id="ellipse26"
       cx="-36.884239"
       cy="106.58579"
       rx="2.9225092"
       ry="4.6577492" />
    <ellipse
       style="opacity:1;fill:#ffffff;fill-opacity:1;stroke-width:1"
       id="path29"
       cx="-46.473717"
       cy="106.58578"
       rx="1.4612546"
       ry="1.9178967" />
    <ellipse
       style="opacity:1;fill:#ffffff;fill-opacity:1;stroke-width:1"
       id="ellipse29"
       cx="-38.254158"
       cy="102.65867"
       rx="1.4612546"
       ry="1.9178967" />
    <path
       style="opacity:1;fill:#ff8080;fill-opacity:1;stroke-width:1"
       d="m -81.723804,118.51847 c 4.30527,0.88257 76.6177536,0.70224 85.6660536,-1.09594 14.4436104,-2.87039 -26.7358596,36.40783 -46.2121736,35.80074 -17.50667,-0.54569 -56.61223,-38.22223 -39.45388,-34.7048 z"
       id="path30"
       sodipodi:nodetypes="ssss" />
    <path
       style="opacity:1;fill:#ffffff;fill-opacity:1;stroke-width:0.800739"
       d="m -74.332244,122.24489 c 3.55136,0.68602 63.200894,0.54585 70.6647036,-0.85188 11.91433,-2.23115 -22.0540296,28.29981 -38.1197636,27.82792 -14.441,-0.42417 -46.69862,-29.71014 -32.54494,-26.97604 z"
       id="path33"
       sodipodi:nodetypes="ssss" />
    <path
       style="opacity:1;fill:#000000;fill-opacity:1;stroke-width:1"
       id="path41"
       d="m -65.534544,135.38653 c 0.38222,0.0179 0.75974,0.063 1.13816,0.11628 0.46135,0.0747 0.92172,0.15575 1.38645,0.20676 0.14004,-0.008 0.34255,0.0542 0.47949,0.0269 0.0957,-0.019 0.29351,-0.11077 0.37253,-0.14476 0.31665,-0.11758 0.61075,-0.27785 0.8977,-0.45409 0.15925,-0.0978 0.32767,-0.25026 0.53575,-0.23795 0.0888,0.005 0.16696,0.0614 0.25044,0.092 -0.19435,-0.10637 -0.378,-0.2352 -0.58305,-0.31912 -0.0864,-0.0354 0.14918,0.11251 0.22177,0.17128 0.0682,0.0552 0.12622,0.12392 0.20054,0.1706 0.89094,0.55966 0.86463,0.65291 1.6713,0.67656 0.11445,-0.004 0.22897,-0.006 0.34335,-0.0115 0.31872,-0.0157 0.31674,-0.0293 0.63606,-0.0336 0.38232,-0.005 0.76621,0.0151 1.1483,0.0249 0.80527,0.0438 1.60835,0.1202 2.41054,0.20152 0.48524,0.0492 1.24902,0.14412 1.74496,0.15688 0.25375,0.007 0.50749,-0.0132 0.76124,-0.0198 1.13261,-0.089 2.17758,-0.56531 3.27736,-0.80489 0.15575,-0.005 0.43675,-0.0593 0.59051,-0.008 0.0572,0.019 0.20954,0.11869 0.15441,0.0943 -0.70476,-0.31219 -0.83504,-0.52161 -0.47414,-0.10241 0.22535,0.22772 0.46385,0.64984 0.73904,0.81849 0.31572,0.19348 0.63976,0.37305 0.95963,0.55958 0.076,0.0254 0.15332,0.0609 0.23653,0.0543 0.26688,-0.0214 0.53979,-0.1871 0.77794,-0.29214 0.24243,-0.12255 0.48667,-0.24111 0.73297,-0.35562 0,0 -0.8069,-0.53316 -0.8069,-0.53316 v 0 c -0.24252,0.11814 -0.48289,0.24058 -0.7273,0.35483 -0.22785,0.0948 -0.50531,0.25533 -0.76367,0.23249 -0.0716,-0.006 -0.15028,-0.0491 -0.21269,-0.0769 0.23733,0.14034 0.47127,0.2866 0.712,0.42103 0.046,0.0257 -0.0865,-0.0603 -0.12673,-0.0942 -0.17306,-0.14561 -0.31482,-0.32276 -0.45816,-0.49627 -0.0594,-0.0719 -0.11835,-0.1441 -0.17752,-0.21615 -0.40802,-0.50855 -0.17692,-0.26641 -1.17357,-0.88147 -0.0542,-0.0334 -0.11712,-0.0526 -0.17954,-0.0651 -0.1915,-0.0383 -0.40347,0.0189 -0.59143,0.0418 -1.06978,0.28457 -2.09819,0.74977 -3.21693,0.82361 -0.24909,0.006 -0.49816,0.0254 -0.74725,0.0193 -0.27702,-0.007 -0.55322,-0.0338 -0.8293,-0.0575 -1.12523,-0.0968 -2.24509,-0.25363 -3.37223,-0.33005 -0.38752,-0.0136 -0.7767,-0.0352 -1.16463,-0.0283 -0.42294,0.008 -0.21469,0.0181 -0.63264,0.034 -0.11315,0.004 -0.22644,0.003 -0.33966,0.005 -0.11045,-0.009 -0.22219,-0.008 -0.33134,-0.0271 -0.1722,-0.0302 -1.15479,-0.40459 0.32325,0.2782 0.0806,0.0372 -0.13431,-0.11619 -0.20178,-0.17391 -0.52122,-0.44589 -0.18261,-0.16488 -1.29524,-0.79712 -0.0938,-0.0167 -0.18641,-0.0568 -0.28146,-0.05 -0.20526,0.0146 -0.37654,0.16496 -0.53968,0.26431 -0.28701,0.17476 -0.58557,0.32391 -0.90466,0.43163 -0.0684,0.0249 -0.13519,0.0548 -0.20521,0.0746 -0.20418,0.058 -0.41886,0.0103 -0.62598,-7e-5 -0.46065,-0.0499 -0.91764,-0.12594 -1.37454,-0.20223 -0.38474,-0.0578 -0.7701,-0.0902 -1.15712,-0.128 z" />
    <path
       style="opacity:1;fill:#000000;fill-opacity:1;stroke-width:1"
       id="path43"
       d="m -39.648524,136.03656 c 0.89414,0.11342 1.7952,0.17209 2.694574,0.22698 0.27953,0.0171 0.5589,0.044 0.83894,0.0447 0.25629,5.3e-4 0.51186,-0.027 0.76779,-0.0405 0.93512,-0.10479 1.73866,-0.59649 2.58805,-0.95234 0.3628,-0.152 0.39759,-0.15079 0.74141,-0.24334 0.0794,0.0123 0.16215,0.0111 0.23821,0.037 0.0701,0.0239 0.25938,0.14266 0.19298,0.10993 -0.22221,-0.10954 -0.42884,-0.25308 -0.66065,-0.34047 -0.0637,-0.024 0.0965,0.096 0.14325,0.14542 0.11167,0.11791 0.12198,0.13467 0.22008,0.25466 0.36528,0.49536 0.97345,0.76084 1.57115,0.81116 0,0 -0.78523,-0.58366 -0.78523,-0.58366 v 0 c -0.11637,-0.0157 -0.18574,-0.0204 -0.2974,-0.0526 -0.0459,-0.0132 -0.17474,-0.0744 -0.13501,-0.0479 1.26548,0.84369 0.76764,0.52881 0.54647,0.25756 -0.43335,-0.55534 -0.57342,-0.58675 -1.3615,-1.04822 -0.0652,-0.0382 -0.13756,-0.0673 -0.21197,-0.0805 -0.082,-0.0146 -0.16658,-10e-4 -0.24986,-0.002 -1.10651,0.3646 -2.08574,1.08068 -3.26871,1.21128 -0.25148,0.013 -0.50263,0.039 -0.75444,0.0389 -0.276764,-1.6e-4 -0.553094,-0.0228 -0.829314,-0.0398 -0.92767,-0.0574 -1.85791,-0.1341 -2.77372,-0.29681 z" />
    <path
       style="opacity:1;fill:#000000;fill-opacity:1;stroke-width:1"
       id="path44"
       d="m -26.43523,135.93352 c 1.70326,0.0454 3.40736,-0.0193 5.10923,-0.0849 1.02564,-0.0575 0.99434,-0.0428 1.95414,-0.14206 0.52655,-0.0545 1.09832,-0.1933 1.61955,-0.0154 0.0934,0.0319 0.17394,0.0931 0.26091,0.13958 -0.21793,-0.11655 -0.42976,-0.24528 -0.65379,-0.34965 -0.0819,-0.0382 0.1299,0.12927 0.20956,0.1719 0.84917,0.45438 0.68668,0.54683 1.25923,0.4601 0.28431,-0.0434 0.56595,-0.10178 0.84912,-0.15179 0,0 -0.78992,-0.55327 -0.78992,-0.55327 v 0 c -0.2861,0.0495 -0.57189,0.10119 -0.85988,0.1388 -0.0467,0.005 -0.0932,0.0127 -0.14007,0.0146 -0.0445,0.002 -0.16891,-0.0302 -0.13344,-0.003 0.22873,0.17321 0.48687,0.3037 0.73041,0.45537 0.0343,0.0213 -0.0708,-0.0395 -0.10259,-0.0643 -0.0427,-0.0334 -0.0744,-0.0803 -0.12008,-0.10956 -0.32846,-0.21027 -0.66662,-0.40497 -0.99993,-0.60745 -0.0889,-0.0371 -0.17325,-0.0876 -0.26658,-0.11123 -0.51855,-0.13146 -1.06583,0.012 -1.58078,0.0747 -0.90266,0.10981 -0.95008,0.0994 -1.91239,0.16568 -1.73978,0.0745 -3.48656,0.12535 -5.22448,-0.0165 z" />
    <rect
       style="fill:#b8ffb8;stroke-width:0.749213"
       id="rect46"
       width="43.472317"
       height="77.446487"
       x="91.983376"
       y="56.941456"
       ry="0" />
    <path
       d="M 152.07754,41.828455 V 34.291964 H 74.631104 v 7.536491 z"
       style="fill:#000000"
       id="path49" />
    <rect
       style="opacity:1;fill:#1a1a1a;fill-opacity:1;stroke-width:1"
       id="rect51"
       width="32.695568"
       height="32.330257"
       x="97.90406"
       y="98.269371"
       ry="4.1097803" />
    <path
       d="m 130.59978,119.44646 -4.56665,1.10691 -6.57582,-1.64383 -6.75825,1.82676 -7.67136,-0.91364 -2.55747,0.73071 -4.566128,-1.11622 v 7.0528 c 0,0.1423 0.0072,0.28267 0.02119,0.42117 0.01398,0.13849 0.03473,0.27526 0.06201,0.40927 0.02728,0.13401 0.06086,0.26545 0.100769,0.3943 0.03991,0.12884 0.08612,0.25475 0.137976,0.37775 0.05185,0.123 0.109477,0.24318 0.172599,0.35967 0.06312,0.11648 0.131961,0.22919 0.205672,0.33848 0.07371,0.10928 0.152539,0.21485 0.236162,0.31626 0.08362,0.10141 0.171728,0.1986 0.264583,0.29145 0.09286,0.0929 0.190045,0.18148 0.291455,0.2651 0.10141,0.0836 0.206973,0.16245 0.31626,0.23616 0.109286,0.0737 0.222513,0.14256 0.338993,0.20568 0.11649,0.0631 0.23615,0.12074 0.35916,0.1726 0.123,0.0519 0.24942,0.0976 0.37827,0.13746 0.12884,0.0399 0.26028,0.074 0.39429,0.10128 0.13401,0.0273 0.27026,0.048 0.40876,0.062 0.13849,0.014 0.27938,0.0212 0.42168,0.0212 h 24.47602 c 0.1423,0 0.28267,-0.007 0.42117,-0.0212 0.13849,-0.014 0.27526,-0.0347 0.40927,-0.062 0.13401,-0.0273 0.26545,-0.0614 0.3943,-0.10128 0.12884,-0.0399 0.25475,-0.0856 0.37775,-0.13746 0.123,-0.0519 0.24318,-0.10948 0.35967,-0.1726 0.11648,-0.0631 0.22919,-0.13196 0.33848,-0.20568 0.10928,-0.0737 0.21485,-0.15253 0.31626,-0.23616 0.10141,-0.0836 0.1986,-0.17224 0.29145,-0.2651 0.0929,-0.0928 0.18148,-0.19004 0.2651,-0.29145 0.0836,-0.10141 0.16245,-0.20698 0.23616,-0.31626 0.0737,-0.10929 0.14256,-0.222 0.20568,-0.33848 0.0631,-0.11649 0.12074,-0.23667 0.1726,-0.35967 0.0519,-0.123 0.0976,-0.24891 0.13746,-0.37775 0.0399,-0.12885 0.074,-0.26029 0.10128,-0.3943 0.0273,-0.13401 0.048,-0.27078 0.062,-0.40927 0.014,-0.1385 0.0212,-0.27887 0.0212,-0.42117 z"
       style="opacity:1;fill:#ffffff"
       id="path61" />
    <path
       d="m 130.59978,107.14178 v -4.7625 c 0,-0.1423 -0.007,-0.28318 -0.0212,-0.42168 -0.014,-0.13849 -0.0347,-0.27475 -0.062,-0.40876 -0.0273,-0.13401 -0.0614,-0.26544 -0.10128,-0.39429 -0.0399,-0.12885 -0.0856,-0.25527 -0.13746,-0.37827 -0.0519,-0.12301 -0.10948,-0.24267 -0.1726,-0.35915 -0.0631,-0.11649 -0.13196,-0.22971 -0.20568,-0.339 -0.0737,-0.109287 -0.15253,-0.214851 -0.23616,-0.316261 -0.0836,-0.10141 -0.17224,-0.1986 -0.2651,-0.291455 -0.0928,-0.09286 -0.19004,-0.181478 -0.29145,-0.2651 -0.10141,-0.08362 -0.20698,-0.16245 -0.31626,-0.236161 -0.10929,-0.07371 -0.222,-0.142034 -0.33848,-0.205156 -0.11649,-0.06312 -0.23667,-0.120745 -0.35967,-0.172599 -0.123,-0.05185 -0.24891,-0.09807 -0.37775,-0.137976 -0.12885,-0.03991 -0.26029,-0.07349 -0.3943,-0.100769 -0.13401,-0.02728 -0.27078,-0.04803 -0.40927,-0.06201 -0.1385,-0.01398 -0.27887,-0.02119 -0.42117,-0.02119 h -24.47602 c -0.1423,0 -0.28319,0.0072 -0.42168,0.02119 -0.1385,0.01398 -0.27475,0.03473 -0.40876,0.06201 -0.13401,0.02728 -0.26545,0.06086 -0.39429,0.100769 -0.12885,0.03991 -0.25527,0.08612 -0.37827,0.137976 -0.12301,0.05185 -0.24267,0.109478 -0.35916,0.172599 -0.11648,0.06312 -0.229707,0.131445 -0.338993,0.205156 -0.109287,0.07371 -0.21485,0.152539 -0.31626,0.236161 -0.10141,0.08362 -0.1986,0.172245 -0.291455,0.2651 -0.09286,0.09286 -0.180961,0.190045 -0.264583,0.291455 -0.08362,0.10141 -0.162451,0.206974 -0.236162,0.316261 -0.07371,0.10929 -0.14255,0.22251 -0.205672,0.339 -0.06312,0.11648 -0.120745,0.23614 -0.172599,0.35915 -0.05185,0.123 -0.09807,0.24942 -0.137976,0.37827 -0.03991,0.12885 -0.07349,0.26028 -0.100769,0.39429 -0.02728,0.13401 -0.04803,0.27027 -0.06201,0.40876 -0.01398,0.1385 -0.02119,0.27938 -0.02119,0.42168 v 4.95009 l 4.931478,-1.20562 2.55747,0.73071 7.67137,-0.91364 6.75824,1.82676 6.57583,-1.64383 z"
       style="opacity:1;fill:#ffffff"
       id="path60" />
    <circle
       style="opacity:1;fill:#eaf6f8;fill-opacity:1;stroke-width:1"
       id="path62"
       cx="96.093468"
       cy="68.066193"
       r="17.307156" />
    <circle
       style="opacity:1;fill:#eaf6f8;fill-opacity:1;stroke-width:1"
       id="circle62"
       cx="131.09526"
       cy="68.066193"
       r="17.307156" />
    <g
       id="g64"
       transform="translate(0.52916667)">
      <circle
         style="opacity:1;fill:#0000ff;fill-opacity:1;stroke-width:0.5"
         id="circle63"
         cx="96.093468"
         cy="68.066193"
         r="8.6535778" />
      <circle
         style="opacity:1;fill:#000000;fill-opacity:1;stroke-width:0.25"
         id="circle64"
         cx="96.093468"
         cy="68.066193"
         r="4.3267889" />
    </g>
    <g
       id="g66"
       transform="translate(35.23503)">
      <circle
         style="opacity:1;fill:#0000ff;fill-opacity:1;stroke-width:0.5"
         id="circle65"
         cx="96.093468"
         cy="68.066193"
         r="8.6535778" />
      <circle
         style="opacity:1;fill:#000000;fill-opacity:1;stroke-width:0.25"
         id="circle66"
         cx="96.093468"
         cy="68.066193"
         r="4.3267889" />
    </g>
    <rect
       style="opacity:1;fill:#b8ffb8;fill-opacity:1;stroke-width:1"
       id="rect62"
       width="73.619987"
       height="22.731787"
       x="76.848938"
       y="45.851048"
       ry="4.1097803" />
    <circle
       style="opacity:1;fill:#ffffff;fill-opacity:1;stroke-width:1"
       id="path66"
       cx="89.506416"
       cy="71.940941"
       r="2.9706314" />
    <circle
       style="opacity:1;fill:#ffffff;fill-opacity:1;stroke-width:0.391304"
       id="circle67"
       cx="104.35957"
       cy="70.391045"
       r="1.162421" />
    <circle
       style="opacity:1;fill:#ffffff;fill-opacity:1;stroke-width:1"
       id="circle68"
       cx="123.99157"
       cy="72.199257"
       r="2.9706314" />
    <circle
       style="opacity:1;fill:#ffffff;fill-opacity:1;stroke-width:0.391304"
       id="circle69"
       cx="138.84473"
       cy="70.649361"
       r="1.162421" />
    <path
       style="opacity:1;fill:#1a1a1a;fill-opacity:1;stroke-width:1"
       id="path75"
       d="m 111.34071,78.336618 c -0.33571,0.542258 -0.72743,1.049028 -1.09755,1.568434 -0.44002,0.602123 -0.88896,1.204463 -1.41017,1.740114 -0.13012,0.133726 -0.26637,0.261356 -0.39955,0.392031 -0.14919,0.134321 -0.29656,0.270682 -0.44755,0.40296 -0.35693,0.312685 -0.53966,0.467376 -0.92888,0.741259 -0.40261,0.283308 -0.82908,0.527791 -1.2558,0.771986 -0.0974,0.05202 -0.19478,0.104042 -0.29218,0.156062 0,0 0.39245,0.256058 0.39245,0.256058 v 0 c 0.0954,-0.05382 0.19077,-0.107632 0.28616,-0.161449 0.42129,-0.25119 0.84319,-0.501785 1.24363,-0.785865 0.42396,-0.300765 0.541,-0.404442 0.93066,-0.744752 0.15187,-0.132646 0.30118,-0.268205 0.45177,-0.402309 0.13649,-0.129633 0.27646,-0.255694 0.40947,-0.388901 0.52974,-0.530532 0.96497,-1.147127 1.41421,-1.74431 0.37604,-0.518126 0.76809,-1.024957 1.12947,-1.553295 z" />
    <path
       style="opacity:1;fill:#1a1a1a;fill-opacity:1;stroke-width:1"
       id="path76"
       d="m 115.60221,78.290115 c 0.32856,0.445368 0.6425,0.901171 0.96687,1.349592 0.3827,0.537035 0.81261,1.038391 1.25144,1.529884 0.31948,0.383146 0.67936,0.728435 1.02681,1.085345 0.27585,0.292502 0.59017,0.543628 0.89098,0.808961 0.11634,0.105695 0.24075,0.201414 0.37291,0.286189 0,0 0.45694,0.176681 0.45694,0.176681 v 0 c -0.13678,-0.07933 -0.26203,-0.175734 -0.38089,-0.280115 -0.30138,-0.267388 -0.6209,-0.515191 -0.8989,-0.808302 -0.34773,-0.358095 -0.71094,-0.701601 -1.03149,-1.085278 -0.44285,-0.48971 -0.87585,-0.990394 -1.25997,-1.528128 -0.31987,-0.442034 -0.62966,-0.890908 -0.94179,-1.338403 z" />
    <path
       d="m 152.07754,83.854036 a 20.471523,20.471523 0 0 0 -1.32033,0.148828 20.471523,20.471523 0 0 0 -4.32687,1.514119 20.471523,20.471523 0 0 0 -3.88194,2.438611 20.471523,20.471523 0 0 0 -3.24114,3.241663 20.471523,20.471523 0 0 0 -2.43913,3.881416 20.471523,20.471523 0 0 0 -1.51412,4.326868 20.471523,20.471523 0 0 0 -0.51314,4.555279 20.471523,20.471523 0 0 0 0.51314,4.5558 20.471523,20.471523 0 0 0 1.19114,3.40444 h 15.53239 z"
       style="opacity:0.33838384;mix-blend-mode:multiply;fill:#b8ffb8"
       id="path78" />
    <path
       d="m 74.653298,83.671379 a 20.471523,20.471523 0 0 1 1.32033,0.148828 20.471523,20.471523 0 0 1 4.32687,1.514119 20.471523,20.471523 0 0 1 3.88194,2.438611 20.471523,20.471523 0 0 1 3.24114,3.241663 20.471523,20.471523 0 0 1 2.43913,3.881416 20.471523,20.471523 0 0 1 1.51412,4.326868 20.471523,20.471523 0 0 1 0.51314,4.555276 20.471523,20.471523 0 0 1 -0.51314,4.5558 20.471523,20.471523 0 0 1 -1.19114,3.40444 h -15.53239 z"
       style="opacity:0.33838384;mix-blend-mode:multiply;fill:#b8ffb8"
       id="path79" />
    <path
       style="opacity:1;fill:#1a1a1a;fill-opacity:1;stroke-width:1"
       id="path80"
       d="m 121.00434,47.787128 c 2.17638,0.653923 4.2533,1.577181 6.31341,2.525813 0.47075,0.229592 0.9451,0.451956 1.41225,0.688779 0.77934,0.395087 1.39855,0.708404 2.10197,1.186186 0.98795,0.671033 1.81204,1.369449 2.68589,2.173758 1.14957,1.120688 2.06762,2.444253 2.9809,3.756718 0.31566,0.442659 0.60513,0.903661 0.88913,1.367086 0,0 0.44399,0.196202 0.44399,0.196202 v 0 c -0.28744,-0.465701 -0.58112,-0.928497 -0.89866,-1.374338 -0.92314,-1.314786 -1.84674,-2.643775 -2.99659,-3.77425 -0.66934,-0.615394 -0.89664,-0.849108 -1.64304,-1.423805 -1.62586,-1.251849 -3.45608,-2.189112 -5.30664,-3.059213 -2.0784,-0.95768 -4.17377,-1.88613 -6.36471,-2.560698 z" />
    <path
       style="opacity:1;fill:#1a1a1a;fill-opacity:1;stroke-width:1"
       id="path83"
       d="m 124.37936,47.891125 c -0.36735,0.386551 -0.70361,0.800592 -1.05891,1.197936 -0.11214,0.125415 -0.22771,0.247724 -0.34157,0.371586 0,0 0.36943,0.224038 0.36943,0.224038 v 0 c 0.47224,-0.522618 0.93421,-1.057211 1.45294,-1.535027 z" />
    <path
       style="opacity:1;fill:#1a1a1a;fill-opacity:1;stroke-width:1"
       id="path84"
       d="m 127.68695,49.185697 c 0.0425,0.704903 -0.2307,1.377352 -0.45954,2.029923 0,0 0.36252,0.200583 0.36252,0.200583 v 0 c 0.0719,-0.199728 0.14609,-0.398629 0.21562,-0.599183 0.15829,-0.456576 0.32414,-0.918591 0.31838,-1.408671 z" />
    <path
       style="opacity:1;fill:#1a1a1a;fill-opacity:1;stroke-width:1"
       id="path85"
       d="m 131.97873,52.279602 c 0.006,0.408795 -0.0423,0.816163 -0.12732,1.215393 -0.0267,0.121282 -0.0755,0.23486 -0.12479,0.348067 0,0 0.42439,0.237855 0.42439,0.237855 v 0 c 0.0474,-0.11802 0.0946,-0.23631 0.11908,-0.361841 0.0788,-0.401437 0.12084,-0.808014 0.14693,-1.21615 z" />
    <path
       style="opacity:1;fill:#1a1a1a;fill-opacity:1;stroke-width:1"
       id="path86"
       d="m 136.25422,56.287156 c -0.11024,0.469191 -0.28685,0.922517 -0.51542,1.346737 -0.16677,0.309523 -0.26003,0.432245 -0.45204,0.714494 -0.0645,0.08381 -0.12904,0.167627 -0.19355,0.251442 0,0 0.39325,0.23318 0.39325,0.23318 v 0 c 0.062,-0.08621 0.12408,-0.172421 0.18612,-0.258633 0.18927,-0.291809 0.27337,-0.41003 0.44451,-0.725181 0.23055,-0.424564 0.42131,-0.870691 0.56562,-1.331777 z" />
  </g>
</svg>
